<?xml version="1.0" encoding="UTF-8" standalone="no"?>
<!-- Created with Inkscape (http://www.inkscape.org/) -->

<svg
   xmlns:dc="http://purl.org/dc/elements/1.1/"
   xmlns:cc="http://creativecommons.org/ns#"
   xmlns:rdf="http://www.w3.org/1999/02/22-rdf-syntax-ns#"
   xmlns:svg="http://www.w3.org/2000/svg"
   xmlns="http://www.w3.org/2000/svg"
   xmlns:sodipodi="http://sodipodi.sourceforge.net/DTD/sodipodi-0.dtd"
   xmlns:inkscape="http://www.inkscape.org/namespaces/inkscape"
   id="svg8840"
   version="1.1"
   inkscape:version="0.48.2 r9819"
   width="450"
   height="315"
   xml:space="preserve"
   sodipodi:docname="PqdotNorms5b.svg"><metadata
     id="metadata8846"><rdf:RDF><cc:Work
         rdf:about=""><dc:format>image/svg+xml</dc:format><dc:type
           rdf:resource="http://purl.org/dc/dcmitype/StillImage" /><dc:title></dc:title></cc:Work></rdf:RDF></metadata><defs
     id="defs8844" /><sodipodi:namedview
     pagecolor="#ffffff"
     bordercolor="#666666"
     borderopacity="1"
     objecttolerance="10"
     gridtolerance="10"
     guidetolerance="10"
     inkscape:pageopacity="0"
     inkscape:pageshadow="2"
     inkscape:window-width="1366"
     inkscape:window-height="713"
     id="namedview8842"
     showgrid="false"
     inkscape:zoom="1.4984127"
     inkscape:cx="303.48547"
     inkscape:cy="136.84738"
     inkscape:window-x="0"
     inkscape:window-y="26"
     inkscape:window-maximized="1"
     inkscape:current-layer="g8848" /><g
     id="g8848"
     inkscape:groupmode="layer"
     inkscape:label="ink_ext_XXXXXX"
     transform="matrix(1.25,0,0,-1.25,0,315)"><path
       inkscape:connector-curvature="0"
       id="path8852"
       style="fill:none;stroke:#000000;stroke-width:0.5;stroke-linecap:butt;stroke-linejoin:miter;stroke-miterlimit:10;stroke-opacity:1;stroke-dasharray:none"
       d="m 86.9,35.2 3.15,0 m 253.45,0 -3.15,0" /><path
       inkscape:connector-curvature="0"
       id="path8854"
       style="fill:none;stroke:#000000;stroke-width:0.5;stroke-linecap:butt;stroke-linejoin:miter;stroke-miterlimit:10;stroke-opacity:1;stroke-dasharray:none"
       d="m 86.9,65.85 3.15,0 m 253.45,0 -3.15,0 m -253.45,30.6 3.15,0 m 253.45,0 -3.15,0 M 86.9,127.1 l 3.15,0 m 253.45,0 -3.15,0 m -253.45,30.65 3.15,0 m 253.45,0 -3.15,0 m -253.45,30.6 3.15,0 m 253.45,0 -3.15,0 M 86.9,219 l 3.15,0 m 253.45,0 -3.15,0 M 86.9,35.2 l 0,3.15 m 0,180.65 0,-3.15 M 119,35.2 l 0,3.15 m 0,180.65 0,-3.15 m 32.05,-180.65 0,3.15 m 0,180.65 0,-3.15 m 32.1,-180.65 0,3.15 m 0,180.65 0,-3.15 M 215.2,35.2 l 0,3.15 m 0,180.65 0,-3.15 m 32.1,-180.65 0,3.15 m 0,180.65 0,-3.15 m 32.05,-180.65 0,3.15 m 0,180.65 0,-3.15 m 32.1,-180.65 0,3.15 m 0,180.65 0,-3.15 M 343.5,35.2 l 0,3.15 m 0,180.65 0,-3.15" /><path
       inkscape:connector-curvature="0"
       id="path8856"
       style="fill:none;stroke:#000000;stroke-width:0.5;stroke-linecap:butt;stroke-linejoin:miter;stroke-miterlimit:10;stroke-opacity:1;stroke-dasharray:none"
       d="m 86.9,35.2 256.6,0 0,183.8 -256.6,0 0,-183.8 z" /><g
       id="g9494"
       style="stroke:#002d93;stroke-opacity:1;stroke-width:1.24;stroke-miterlimit:4;stroke-dasharray:none"><path
         d="m 300.75,210.35 29.55,0 m -237,-56 0.35,-1.9 0.3,-0.7 0.35,-1 0.3,-1 0.3,-1.4 0.35,-1.3 0.3,-0.6 0.35,-0.95 0.3,-1.65 0.3,-0.1 0.35,-1.35 0.3,-1.1 0.35,-1 0.3,-0.85 0.35,-1.35 0.3,-1.2 0.3,1.35 0.35,-2.3 0.3,-1.15 0.35,-1.2 0.3,0.05 0.3,-0.65 0.35,-1.95 0.3,0.85 0.35,-1.25 0.3,-0.9 0.35,-0.2 0.3,-0.7 0.3,-1.15 0.35,-0.55 0.3,-1 0.35,-0.35 0.3,-0.9 0.3,-0.45 0.35,-1.15 0.3,-0.5 0.35,-0.45 0.3,-1.35 0.3,0.1 0.35,-1.4 0.3,0.1 0.35,-1.15 0.3,-0.6 0.35,-0.3 0.3,-0.45 0.3,-1.45 0.35,-0.25 0.3,-0.65 0.35,-0.25 0.3,-1.25 0.3,-0.45 0.35,-1.3 0.3,-0.45 0.35,-0.8 0.3,-0.7 0.35,-0.65 0.3,-0.35 0.3,-1.35 0.35,-0.25 0.3,-0.8 0.35,-1.2 0.3,0.2 0.3,-0.75 0.35,-0.9 0.3,-0.7 0.35,-0.45 0.3,-1.15 0.35,-0.5 0.3,-0.75 0.3,-0.75 0.35,-0.4 0.3,-0.45 0.35,-0.5 0.3,-0.25 0.3,-0.6 0.35,-0.9 0.3,-0.15 0.35,-0.05 0.3,-0.3 0.35,-0.5 0.3,-0.25 0.3,-0.65 0.35,0.05 0.3,0.15 0.35,-0.55 0.3,-0.3 0.3,0.05 0.35,0.35 0.3,-0.25 0.35,-0.25 0.3,-0.15 0.3,-0.15 0.35,0 0.3,0.15 0.35,-0.45 0.3,0.35 0.35,-0.35 0.3,0.1 0.3,-0.45 0.35,-0.45 0.3,0.05 0.35,-0.65"
         style="fill:none;stroke:#002d93;stroke-width:1.24;stroke-linecap:butt;stroke-linejoin:miter;stroke-miterlimit:4;stroke-opacity:1;stroke-dasharray:none"
         id="path8858"
         inkscape:connector-curvature="0" /><path
         d="m 126.05,91.65 0.3,-0.45 0.3,-0.3 0.35,-0.3 0.3,-0.5 0.35,-0.25 0.3,-0.65 0.35,-0.1 0.3,-0.9 0.3,-0.1 0.35,-0.45 0.3,-0.4 0.35,-0.4 0.3,-0.25 0.3,-0.15 0.35,-0.7 0.3,-0.05 0.35,-0.25 0.3,-0.15 0.35,-0.4 0.3,-0.2 0.3,0 0.35,-0.35 0.3,0.05 0.35,-0.05 0.3,-0.2 0.3,0.05 0.35,0 0.3,-0.15 0.35,0 0.3,-0.1 0.3,-0.05 0.35,-0.15 0.3,-0.05 0.35,-0.15 0.3,-0.2 0.35,-0.15 0.3,-0.25 0.3,-0.25 0.35,-0.2 0.3,-0.25 0.35,-0.2 0.3,-0.2 0.3,0 0.35,-0.2 0.3,-0.25 0.35,0.2 0.3,-0.15 0.35,-0.3 0.3,0.2 0.3,-0.5 0.35,0.05 0.3,-0.15 0.35,-0.1 0.3,-0.1 0.3,0.3 0.35,-0.5 0.3,0.45 0.35,-0.5 0.3,-0.05 0.35,0.15 0.3,-0.1 0.3,-0.15 0.35,0.15 0.3,-0.25 0.35,-0.1 0.3,-0.2 0.3,0 0.35,-0.3 0.3,-0.1 0.35,-0.15 0.3,-0.15 0.35,-0.05 0.3,-0.5 0.3,0.25 0.35,-0.45 0.3,0.15 0.35,-0.1 0.3,-0.25 0.3,0.2 0.35,-0.35 0.3,-0.2 0.35,0 0.3,-0.4 0.3,-0.4 0.35,0.05 0.3,-0.05 0.35,-0.35 0.3,-0.3 0.35,-0.2 0.3,-0.2 0.3,-0.05 0.35,0.25 0.3,0.6 0.35,-0.25 0.3,0.05 0.3,0.65 0.35,-0.35 0.3,-0.05 0.35,0.1 0.65,0 0.3,0.35 0.3,-0.4 0.35,-0.2"
         style="fill:none;stroke:#002d93;stroke-width:1.24;stroke-linecap:butt;stroke-linejoin:miter;stroke-miterlimit:4;stroke-opacity:1;stroke-dasharray:none"
         id="path8860"
         inkscape:connector-curvature="0" /><path
         d="m 159.4,76.6 0.3,-0.1 0.35,-0.7 0.3,0.1 0.3,-0.7 0.35,0.2 0.3,-0.35 0.35,0 0.3,-0.3 0.35,0.95 0.3,-1.05 0.3,0.5 0.35,-0.55 0.3,0.15 0.35,0.4 0.3,-0.45 0.3,-0.05 0.35,0 0.3,1.35 0.35,-0.15 0.3,0.2 0.35,-0.2 0.3,0 0.3,0.3 0.35,-0.2 0.3,0.65 0.35,-0.05 0.3,0.5 0.3,-0.65 0.35,-0.95 0.3,1.5 0.35,-0.8 0.3,-0.15 0.3,2.75 0.35,-2.3 0.3,0.5 0.35,-0.9 0.3,0 0.35,0.55 0.3,-1.25 0.3,0 0.35,1.3 0.3,-1.7 0.35,0.55 0.3,0.6 0.3,-1.3 0.35,0.35 0.3,-0.6 0.35,0.2 0.3,0.45 0.35,-0.5 0.3,-0.3 0.3,1.2 0.35,-2.7 0.3,1.15 0.35,-0.2 0.3,-0.9 0.3,0.75 0.35,0.4 0.3,-0.6 0.35,0.4 0.3,-1.05 0.35,1.6 0.3,-0.9 0.3,0.55 0.35,-0.55 0.3,0.7 0.35,-0.5 0.3,1.05 0.3,1.05 0.35,-2.45 0.3,2.7 0.35,-1.55 0.3,0.25 0.35,1.1 0.3,-1.2 0.3,0.45 0.35,0.7 0.3,-0.4 0.35,0.2 0.3,-0.2 0.3,-1.1 0.35,0 0.3,0.25 0.35,2.15 0.3,-0.75 0.3,-0.45 0.35,0 0.3,0.15 0.35,-1.8 0.3,1.45 0.35,-1.05 0.3,-0.4 0.3,0.2 0.35,0.85 0.3,-1.25 0.35,1.1 0.3,-1.9 0.3,-0.45 0.35,0.2 0.3,1.2 0.35,0.55 0.3,-0.95 0.35,0 0.3,0.25"
         style="fill:none;stroke:#002d93;stroke-width:1.24;stroke-linecap:butt;stroke-linejoin:miter;stroke-miterlimit:4;stroke-opacity:1;stroke-dasharray:none"
         id="path8862"
         inkscape:connector-curvature="0" /><path
         d="m 192.75,73.7 0.3,0.15 0.35,-0.65 0.65,0 0.3,-2.3 0.3,4.45 0.35,-2.35 0.3,0.55 0.35,0.05 0.3,-1.55 0.35,0.2 0.3,1.2 0.3,0 0.35,-2.15 0.3,-0.25 0.35,0.45 0.3,-0.55 0.3,0 0.35,-0.55 0.3,0.9 0.35,-0.35 0.3,-0.25 0.3,-0.15 0.35,0.9 0.3,0.2 0.35,0.35 0.3,-1.1 0.35,-1.15 0.3,0.55 0.3,1.2 0.35,-0.55 0.3,0.6 0.35,-0.15 0.3,1.2 0.3,0.2 0.35,-0.2 0.3,-1.35 0.35,0.55 0.3,-0.85 0.35,-1.3 0.3,0 0.3,1.45 0.35,0 0.3,-0.85 0.35,-0.65 0.3,0.6 0.3,-1.6 0.35,1 0.3,0.85 0.35,0.7 0.3,-1.6 0.35,1 0.3,-1.05 0.3,-0.05 0.35,0.15 0.3,0.7 0.35,0.95 0.3,-1.3 0.3,-0.15 0.35,0.65 0.3,0.85 0.35,-0.95 0.3,-0.4 0.35,-1.3 0.3,1.5 0.3,-0.05 0.35,-1.05 0.3,0.75 0.35,0.15 0.3,-1.15 0.3,0 0.35,-0.3 0.3,0.85 0.35,-0.45 0.3,1.35 0.3,-0.35 0.35,0.6 0.3,0.05 0.35,-0.3 0.3,-1.25 0.35,-0.95 0.3,1.2 0.3,0.6 0.35,-0.35 0.3,1.05 0.35,0.3 0.3,-0.85 0.3,-0.1 0.35,0.15 0.3,-1.05 0.35,0.4 0.3,0.25 0.35,1.15 0.3,-0.35 0.3,-0.3 0.35,-1.7 0.3,1.15 0.35,1 0.3,-0.8 0.3,-0.4 0.35,0.4 0.3,1.7 0.35,-0.8 0.3,-0.55"
         style="fill:none;stroke:#002d93;stroke-width:1.24;stroke-linecap:butt;stroke-linejoin:miter;stroke-miterlimit:4;stroke-opacity:1;stroke-dasharray:none"
         id="path8864"
         inkscape:connector-curvature="0" /><path
         d="m 226.1,70.15 0.35,0.35 0.3,-2.6 0.3,2.05 0.35,0.6 0.3,-0.5 0.35,-0.05 0.3,-0.6 0.3,-0.7 0.35,-0.5 0.3,0.45 0.35,0.25 0.3,-1.55 0.35,0.45 0.3,1.6 0.3,-0.15 0.35,-1.45 0.3,-0.45 0.35,0.2 0.3,-0.5 0.3,0.1 0.35,0.05 0.3,-1.3 0.35,2.15 0.3,-0.8 0.3,-0.05 0.35,0.2 0.3,-0.75 0.35,0.35 0.3,0.45 0.35,-1.5 0.3,0.3 0.3,-0.75 0.35,1.8 0.3,-1.25 0.35,0.05 0.3,0.6 0.3,0.25 0.35,-0.2 0.3,1.45 0.35,-0.2 0.3,-0.4 0.35,-0.1 0.3,-1.35 0.3,0 0.35,-0.9 0.3,0.1 0.35,0.8 0.3,0.1 0.3,1.8 0.35,-0.05 0.3,-0.65 0.35,-0.35 0.3,0.9 0.35,0.65 0.3,-0.6 0.3,0 0.35,-1.1 0.3,0.4 0.35,0.2 0.3,0.1 0.3,-1.9 0.35,0.35 0.3,0.4 0.35,-0.9 0.3,-0.45 0.35,0.2 0.3,0.15 0.3,0 0.35,-0.55 0.3,1.6 0.35,-1.7 0.3,0.75 0.3,0.85 0.35,-1.2 0.3,0.9 0.35,-0.65 0.3,1.2 0.3,-0.7 0.35,-1.1 0.3,0 0.35,-1.1 0.3,0 0.35,1.05 0.3,1.75 0.3,-0.7 0.35,-0.2 0.3,0.75 0.35,-1.1 0.3,-0.2 0.3,0.2 0.35,1 0.3,0.25 0.35,-1.3 0.3,0 0.35,0.1 0.3,2.25 0.3,-1.45 0.35,-0.9 0.3,-0.4 0.35,1.25 0.3,0.4 0.3,-1.15 0.35,0.4 0.3,-1.4"
         style="fill:none;stroke:#002d93;stroke-width:1.24;stroke-linecap:butt;stroke-linejoin:miter;stroke-miterlimit:4;stroke-opacity:1;stroke-dasharray:none"
         id="path8866"
         inkscape:connector-curvature="0" /><path
         d="m 259.45,64.3 0.35,-0.7 0.3,1.15 0.35,0 0.3,-0.55 0.3,0.3 0.35,-0.6 0.3,0.25 0.35,-0.45 0.3,-0.1 0.3,0.15 0.35,0 0.3,1.65 0.35,-0.25 0.3,-0.2 0.3,0.65 0.35,0.05 0.3,0.7 0.35,-0.2 0.3,-1.7 0.35,3.25 0.3,-0.9 0.3,-2.1 0.35,0.05 0.3,0.45 0.35,-0.65 0.3,-0.1 0.3,-0.6 0.35,0.55 0.3,0.3 0.35,-0.95 0.3,0.6 0.35,-0.15 0.3,-0.5 0.3,2.45 0.35,-3.4 0.3,0.55 0.35,0.55 0.3,-0.8 0.3,3.85 0.35,-2.95 0.3,3.3 0.35,-5.05 0.3,4.85 0.35,-4.25 0.3,2.95 0.3,-3.7 0.35,2.75 0.3,-0.1 0.35,-1.9 0.3,0.15 0.3,-0.35 0.35,0.4 0.3,-0.6 0.35,-0.5 0.3,1.1 0.35,-1 0.3,0 0.3,-0.4 0.35,-0.4 0.3,0.4 0.35,0.7 0.3,-0.15 0.3,-0.1 0.35,0.1 0.3,-0.8 0.35,0.9 0.3,-0.35 0.3,-0.5 0.35,-0.6 0.3,1.6 0.35,-0.3 0.3,-0.15 0.35,0.45 0.3,0.1 0.3,0.25 0.35,0.85 0.3,-1 0.35,0.6 0.3,-0.25 0.3,-1.85 0.35,0.25 0.3,2.85 0.35,-1.35 0.3,-1.3 0.35,0.45 0.3,-0.15 0.3,0.5 0.35,-1.2 0.3,0.65 0.35,-0.75 0.3,2.2 0.3,-2.6 0.35,-0.55 0.3,-0.15 0.35,0.95 0.3,-0.85 0.35,-0.45 0.3,0.95 0.3,-1.3 0.35,0.95 0.3,-0.55 0.35,2.15 0.3,-0.85 0.3,0.5"
         style="fill:none;stroke:#002d93;stroke-width:1.24;stroke-linecap:butt;stroke-linejoin:miter;stroke-miterlimit:4;stroke-opacity:1;stroke-dasharray:none"
         id="path8868"
         inkscape:connector-curvature="0" /><path
         d="m 292.8,61.45 0.35,-0.65 0.3,-0.15 0.35,0 0.3,-0.1 0.35,0.2 0.3,-1.3 0.3,0.95 0.35,-1 0.3,-0.05 0.35,0.5 0.3,-1.4 0.3,0.55 0.35,-0.75 0.3,0.8 0.35,1.25 0.3,-2.95 0.3,1.1 0.35,1.45 0.3,-0.3 0.35,-0.85 0.3,0.25 0.35,0.9 0.3,0.4 0.3,-0.05 0.35,-0.65 0.3,0 0.35,1.4 0.3,0 0.3,0.35 0.35,-2.1 0.3,0.7 0.35,0.95 0.3,-0.6 0.35,0.65 0.3,-1.9 0.3,3.05 0.35,-2.95 0.3,4.15 0.35,-4.35 0.3,3.4 0.3,-2.9 0.35,2.8 0.3,-1.3 0.35,-0.8 0.3,1.5 0.35,-0.85 0.3,3.25 0.3,-3.6 0.35,1.5 0.3,-0.15 0.35,-1.5 0.3,1.7 0.3,-0.35 0.35,-0.2 0.3,0.1 0.35,0.05 0.3,-1.1 0.35,0.25 0.3,-0.2 0.3,-0.7 0.35,-0.25 0.3,-1.65 0.35,-0.1 0.3,1.85 0.3,-0.85 0.35,-0.2 0.3,-0.65 0.35,-0.3 0.3,-0.4 0.3,-0.2 0.35,0.65 0.3,-0.8 0.35,0.7 0.3,-0.75 0.35,-0.15 0.3,0.4 0.3,0.75 0.35,-2.4 0.3,1.55 0.35,2.05 0.3,-0.65 0.3,-0.3 0.35,-1 0.3,1 0.35,-0.6 0.3,0.7 0.35,-1.45 0.3,0.9 0.3,1.15 0.35,-0.05 0.3,-0.25 0.35,0.1 0.3,-0.05 0.3,0.1 0.35,0.95 0.3,-0.25 0.35,0.5 0.3,-0.95 0.35,0.25 0.3,-0.25 0.3,0.05 0.35,0.55 0.3,-0.05 0.35,0.35"
         style="fill:none;stroke:#002d93;stroke-width:1.24;stroke-linecap:butt;stroke-linejoin:miter;stroke-miterlimit:4;stroke-opacity:1;stroke-dasharray:none"
         id="path8870"
         inkscape:connector-curvature="0" /><path
         d="m 326.2,59.85 0.3,0.05 0.3,0.15 0.35,-0.85 0.3,-0.25 0.35,0 0.3,-0.45 0.3,0.7 0.35,-0.55 0.3,0.35 0.35,-0.4 0.3,0.7 0.35,-0.3 0.3,-1.75 0.3,-0.85 0.35,0.5 0.3,0.55 0.35,0.2 0.3,-1.55 0.3,-0.35 0.35,0.4 0.3,-0.6 0.35,1.15 0.3,-2.1 0.35,-0.3 0.3,-0.15 0.3,-0.1 0.35,0.95 0.3,-1.35 0.35,0.55 0.3,0 0.3,-0.75 0.35,-0.6 0.3,-0.15 0.35,0 0.3,-0.05 0.35,0.25 0.3,-1.1 0.3,0.45 0.35,-1.4 0.3,0.95 0.35,-0.45 0.3,1.3 0.3,-3 0.35,3 0.3,-1.65 0.35,0.6 0.3,0.4 0.35,-1.05 0.3,0.2 0.3,0.1 0.35,-0.25 0.3,-0.65 0.35,1.05 0.3,-0.4"
         style="fill:none;stroke:#002d93;stroke-width:1.24;stroke-linecap:butt;stroke-linejoin:miter;stroke-miterlimit:4;stroke-opacity:1;stroke-dasharray:none"
         id="path8872"
         inkscape:connector-curvature="0" /></g><g
       id="g9504"
       style="stroke:#ff31a3;stroke-opacity:1;stroke-width:1.24;stroke-miterlimit:4;stroke-dasharray:4.96,2.48;stroke-dashoffset:0"><path
         d="m 300.75,199.35 29.55,0 m -237,-49.7 0.35,-2 0.3,-0.7 0.35,-1.1 0.3,-1 0.3,-1.5 0.35,-1.45 0.3,-0.6 0.35,-0.95 0.3,-1.75 0.3,-0.1 0.35,-1.45 0.3,-1.15 0.35,-1 0.3,-0.9 0.35,-1.45 0.3,-1.3 0.3,1.5 0.35,-2.4 0.3,-1.25 0.35,-1.3 0.3,0.05 0.3,-0.65 0.35,-2.15 0.3,0.95 0.35,-1.4 0.3,-1 0.35,-0.25 0.3,-0.8 0.3,-1.25 0.35,-0.65 0.3,-1.05 0.35,-0.4 0.3,-0.9 0.3,-0.5 0.35,-1.2 0.3,-0.45 0.35,-0.45 0.3,-1.4 0.3,0.15 0.35,-1.45 0.3,0.25 0.35,-1.2 0.3,-0.5 0.35,-0.25 0.3,-0.45 0.3,-1.5 0.35,-0.2 0.3,-0.65 0.35,-0.25 0.3,-1.3 0.3,-0.5 0.35,-1.45 0.3,-0.45 0.35,-0.9 0.3,-0.75 0.35,-0.65 0.3,-0.45 0.3,-1.5 0.35,-0.3 0.3,-0.95 0.35,-1.4 0.3,0.25 0.3,-0.95 0.35,-1.1 0.3,-0.8 0.35,-0.55 0.3,-1.4 0.35,-0.5 0.3,-0.9 0.3,-0.85 0.35,-0.4 0.3,-0.55 0.35,-0.5 0.3,-0.3 0.3,-0.7 0.35,-1.05 0.3,-0.2 0.35,0.05 0.3,-0.35 0.35,-0.65 0.3,-0.25 0.3,-0.9 0.35,0.1 0.3,0.15 0.35,-0.7 0.3,-0.45 0.3,0 0.35,0.55 0.3,-0.35 0.35,-0.3 0.3,-0.15 0.3,-0.2 0.35,0 0.3,0.3 0.35,-0.5 0.3,0.5 0.35,-0.25 0.3,0.25 0.3,-0.4 0.35,-0.45 0.3,0.15 0.35,-0.5"
         style="fill:none;stroke:#ff31a3;stroke-width:1.24;stroke-linecap:butt;stroke-linejoin:miter;stroke-miterlimit:4;stroke-opacity:1;stroke-dasharray:4.96,2.48;stroke-dashoffset:0"
         id="path8874"
         inkscape:connector-curvature="0" /><path
         d="m 126.05,82.8 0.3,-0.4 0.3,-0.2 0.35,-0.2 0.3,-0.4 0.35,-0.2 0.3,-0.75 0.35,0 0.3,-1.1 0.3,0.1 0.35,-0.55 0.3,-0.45 0.35,-0.5 0.3,-0.25 0.3,-0.05 0.35,-1 0.3,0.05 0.35,-0.25 0.3,-0.1 0.35,-0.55 0.3,-0.2 0.3,0.1 0.35,-0.55 0.3,0.15 0.35,-0.1 0.3,-0.25 0.3,0.1 0.35,0 0.3,-0.25 0.35,0.05 0.3,-0.25 0.3,-0.05 0.35,-0.2 0.3,-0.2 0.35,-0.15 0.3,-0.3 0.35,-0.35 0.3,-0.15 0.3,-0.4 0.35,-0.35 0.3,-0.3 0.35,-0.25 0.3,-0.25 0.3,-0.2 0.35,-0.2 0.3,-0.2 0.35,0.05 0.3,-0.15 0.35,-0.15 0.3,0.05 0.3,-0.25 0.35,-0.05 0.3,-0.1 0.35,-0.05 0.3,-0.05 0.3,0.2 0.35,-0.25 0.3,0.25 0.35,-0.3 0.3,0 0.35,0.15 0.6,0 0.35,0.1 0.3,-0.05 0.95,0 0.35,-0.05 0.3,-0.1 0.35,-0.05 0.3,-0.1 0.35,0 0.3,-0.3 0.3,0.15 0.35,-0.2 0.3,0.1 0.35,-0.05 0.3,-0.15 0.3,0.2 0.35,-0.2 0.3,-0.15 0.35,0.05 0.3,-0.3 0.3,-0.3 0.35,0.1 0.3,0 0.35,-0.25 0.3,-0.2 0.35,-0.1 0.3,-0.05 0.3,-0.05 0.35,0.25 0.3,0.6 0.35,-0.2 0.3,0.05 0.3,0.55 0.35,-0.4 0.3,-0.15 0.35,0.05 0.3,-0.15 0.35,-0.2 0.3,0.2 0.3,-0.5 0.35,-0.35"
         style="fill:none;stroke:#ff31a3;stroke-width:1.24;stroke-linecap:butt;stroke-linejoin:miter;stroke-miterlimit:4;stroke-opacity:1;stroke-dasharray:4.96,2.48;stroke-dashoffset:0"
         id="path8876"
         inkscape:connector-curvature="0" /><path
         d="m 159.4,68.4 0.3,-0.1 0.35,-0.85 0.3,0 0.3,-0.75 0.35,0.15 0.3,-0.35 0.35,0 0.3,-0.25 0.35,1.05 0.3,-1 0.3,0.55 0.35,-0.5 0.3,0.25 0.35,0.5 0.3,-0.45 0.3,0.05 0.35,0.1 0.3,1.5 0.35,-0.1 0.3,0.25 0.35,-0.15 0.3,0.15 0.3,0.35 0.35,-0.2 0.3,0.75 0.35,0 0.3,0.5 0.3,-0.6 0.35,-1.05 0.3,1.6 0.35,-0.85 0.3,-0.15 0.3,2.8 0.35,-2.4 0.3,0.45 0.35,-0.9 0.3,0 0.35,0.65 0.3,-1.3 0.3,0.1 0.35,1.35 0.3,-1.75 0.35,0.7 0.3,0.65 0.3,-1.3 0.35,0.45 0.3,-0.65 0.35,0.3 0.3,0.45 0.35,-0.45 0.3,-0.25 0.3,1.25 0.35,-2.8 0.3,1.2 0.35,-0.15 0.3,-0.95 0.3,0.85 0.35,0.45 0.3,-0.65 0.35,0.55 0.3,-1.1 0.35,1.7 0.3,-0.95 0.3,0.65 0.35,-0.55 0.3,0.7 0.35,-0.5 0.3,1.15 0.3,1.1 0.35,-2.55 0.3,2.9 0.35,-1.6 0.3,0.2 0.35,1.3 0.3,-1.25 0.3,0.5 0.35,0.75 0.3,-0.4 0.35,0.25 0.3,-0.25 0.3,-1.1 0.35,0.05 0.3,0.2 0.35,2.3 0.3,-0.75 0.3,-0.55 0.35,0.05 0.3,0.2 0.35,-1.8 0.3,1.55 0.35,-1.15 0.3,-0.35 0.3,0.25 0.35,0.9 0.3,-1.3 0.35,1.1 0.3,-1.95 0.3,-0.55 0.35,0.25 0.3,1.25 0.35,0.55 0.3,-0.95 0.35,0.05 0.3,0.25"
         style="fill:none;stroke:#ff31a3;stroke-width:1.24;stroke-linecap:butt;stroke-linejoin:miter;stroke-miterlimit:4;stroke-opacity:1;stroke-dasharray:4.96,2.48;stroke-dashoffset:0"
         id="path8878"
         inkscape:connector-curvature="0" /><path
         d="m 192.75,68 0.3,0.2 0.35,-0.7 0.3,0.1 0.35,0 0.3,-2.4 0.3,4.7 0.35,-2.45 0.3,0.55 0.35,0 0.3,-1.6 0.35,0.25 0.3,1.25 0.3,0 0.35,-2.25 0.3,-0.25 0.35,0.5 0.3,-0.55 0.3,0 0.35,-0.6 0.3,1.05 0.35,-0.3 0.3,-0.25 0.3,-0.1 0.35,1.1 0.3,0.3 0.35,0.4 0.3,-1 0.35,-1.1 0.3,0.7 0.3,1.35 0.35,-0.45 0.3,0.7 0.35,-0.1 0.3,1.3 0.3,0.3 0.35,-0.2 0.3,-1.35 0.35,0.6 0.3,-0.9 0.35,-1.35 0.3,0 0.3,1.45 0.35,0 0.3,-0.9 0.35,-0.7 0.3,0.6 0.3,-1.7 0.35,1.05 0.3,0.8 0.35,0.75 0.3,-1.65 0.35,1.05 0.3,-1.1 0.3,-0.05 0.35,0.2 0.3,0.7 0.35,1 0.3,-1.3 0.3,-0.15 0.35,0.65 0.3,0.95 0.35,-1 0.3,-0.4 0.35,-1.35 0.3,1.6 0.3,-0.05 0.35,-1.05 0.3,0.8 0.35,0.15 0.3,-1.15 0.3,-0.05 0.35,-0.25 0.3,0.8 0.35,-0.45 0.3,1.35 0.3,-0.35 0.35,0.6 0.3,0.05 0.35,-0.35 0.3,-1.25 0.35,-1 0.3,1.25 0.3,0.55 0.35,-0.3 0.3,1.05 0.35,0.3 0.3,-0.85 0.3,-0.15 0.35,0.2 0.3,-1.1 0.35,0.45 0.3,0.3 0.35,1.2 0.3,-0.3 0.3,-0.3 0.35,-1.65 0.3,1.2 0.35,1 0.3,-0.8 0.3,-0.4 0.35,0.45 0.3,1.75 0.35,-0.8 0.3,-0.55"
         style="fill:none;stroke:#ff31a3;stroke-width:1.24;stroke-linecap:butt;stroke-linejoin:miter;stroke-miterlimit:4;stroke-opacity:1;stroke-dasharray:4.96,2.48;stroke-dashoffset:0"
         id="path8880"
         inkscape:connector-curvature="0" /><path
         d="m 226.1,66.25 0.35,0.35 0.3,-2.6 0.3,2.05 0.35,0.65 0.3,-0.4 0.35,-0.15 0.3,-0.6 0.3,-0.7 0.35,-0.55 0.3,0.45 0.35,0.25 0.3,-1.6 0.35,0.45 0.3,1.65 0.3,-0.1 0.35,-1.55 0.3,-0.4 0.35,0.25 0.3,-0.45 0.3,0.1 0.35,0.05 0.3,-1.3 0.35,2.15 0.3,-0.85 0.3,0 0.35,0.2 0.3,-0.9 0.35,0.4 0.3,0.4 0.35,-1.5 0.3,0.2 0.3,-0.8 0.35,1.9 0.3,-1.35 0.35,0.05 0.3,0.65 0.3,0.35 0.35,-0.2 0.3,1.55 0.35,-0.15 0.3,-0.4 0.35,-0.1 0.3,-1.35 0.3,0.05 0.35,-0.8 0.3,0.05 0.35,0.85 0.3,0.1 0.3,1.9 0.35,0 0.3,-0.7 0.35,-0.3 0.3,0.9 0.35,0.65 0.3,-0.6 0.3,0.05 0.35,-1.1 0.3,0.4 0.35,0.25 0.3,0.15 0.3,-1.9 0.35,0.4 0.3,0.35 0.35,-0.8 0.3,-0.4 0.35,0.2 0.3,0.15 0.3,0.05 0.35,-0.5 0.3,1.65 0.35,-1.65 0.3,0.85 0.3,0.85 0.35,-1.1 0.3,0.9 0.35,-0.55 0.3,1.2 0.3,-0.7 0.35,-1.05 0.3,0 0.35,-1 0.3,0 0.35,1.05 0.3,1.75 0.3,-0.65 0.35,-0.2 0.3,0.8 0.35,-1.1 0.3,-0.25 0.3,0.25 0.35,1 0.3,0.25 0.35,-1.3 0.3,0 0.35,0.05 0.3,2.25 0.3,-1.45 0.35,-0.95 0.3,-0.4 0.35,1.25 0.3,0.4 0.3,-1.1 0.35,0.35 0.3,-1.35"
         style="fill:none;stroke:#ff31a3;stroke-width:1.24;stroke-linecap:butt;stroke-linejoin:miter;stroke-miterlimit:4;stroke-opacity:1;stroke-dasharray:4.96,2.48;stroke-dashoffset:0"
         id="path8882"
         inkscape:connector-curvature="0" /><path
         d="m 259.45,61.8 0.35,-0.75 0.3,1.25 0.35,0 0.3,-0.5 0.3,0.3 0.35,-0.55 0.3,0.3 0.35,-0.45 0.3,-0.05 0.3,0.2 0.35,0 0.3,1.65 0.35,-0.25 0.3,-0.2 0.3,0.65 0.35,0.05 0.3,0.65 0.35,-0.2 0.3,-1.65 0.35,3.25 0.3,-1 0.3,-2 0.35,0.05 0.3,0.45 0.35,-0.65 0.3,-0.05 0.3,-0.6 0.35,0.5 0.3,0.3 0.35,-0.85 0.3,0.6 0.35,-0.15 0.3,-0.5 0.3,2.45 0.35,-3.35 0.3,0.5 0.35,0.65 0.3,-0.85 0.3,3.85 0.35,-2.95 0.3,3.25 0.35,-4.9 0.3,4.8 0.35,-4.2 0.3,2.9 0.3,-3.6 0.35,2.75 0.3,-0.1 0.35,-1.85 0.3,0.2 0.3,-0.35 0.35,0.4 0.3,-0.6 0.35,-0.5 0.3,1.15 0.35,-1 0.3,-0.05 0.3,-0.4 0.35,-0.4 0.3,0.45 0.35,0.65 0.3,-0.1 0.3,-0.25 0.35,0.25 0.3,-0.8 0.35,0.85 0.3,-0.4 0.3,-0.55 0.35,-0.55 0.3,1.5 0.35,-0.3 0.3,-0.25 0.35,0.5 0.3,0.1 0.3,0.15 0.35,0.8 0.3,-0.95 0.35,0.5 0.3,-0.25 0.3,-1.85 0.35,0.25 0.3,2.75 0.35,-1.3 0.3,-1.3 0.35,0.45 0.3,-0.15 0.3,0.5 0.35,-1.15 0.3,0.7 0.35,-0.65 0.3,2.25 0.3,-2.5 0.35,-0.5 0.3,-0.1 0.35,0.95 0.3,-0.8 0.35,-0.45 0.3,0.95 0.3,-1.2 0.35,0.9 0.3,-0.55 0.35,2.1 0.3,-0.9 0.3,0.5"
         style="fill:none;stroke:#ff31a3;stroke-width:1.24;stroke-linecap:butt;stroke-linejoin:miter;stroke-miterlimit:4;stroke-opacity:1;stroke-dasharray:4.96,2.48;stroke-dashoffset:0"
         id="path8884"
         inkscape:connector-curvature="0" /><path
         d="m 292.8,59.65 0.35,-0.7 0.3,-0.2 0.35,0 0.3,-0.15 0.35,0.05 0.3,-1.25 0.3,0.95 0.35,-1 0.3,-0.05 0.35,0.55 0.3,-1.4 0.3,0.55 0.35,-0.7 0.3,0.85 0.35,1.25 0.3,-2.85 0.3,1.15 0.35,1.35 0.3,-0.25 0.35,-0.75 0.3,0.25 0.35,0.95 0.3,0.4 0.3,-0.05 0.35,-0.55 0.3,0 0.35,1.4 0.3,0 0.3,0.3 0.35,-2 0.3,0.65 0.35,0.95 0.3,-0.65 0.35,0.65 0.3,-1.85 0.3,3 0.35,-2.9 0.3,4 0.35,-4.3 0.3,3.3 0.3,-2.8 0.35,2.7 0.3,-1.3 0.35,-0.8 0.3,1.45 0.35,-0.85 0.3,3.2 0.3,-3.65 0.35,1.45 0.3,-0.15 0.35,-1.5 0.3,1.65 0.3,-0.4 0.35,-0.2 0.3,0.1 0.35,-0.05 0.3,-1.05 0.35,0.2 0.3,-0.1 0.3,-0.8 0.35,-0.2 0.3,-1.6 0.35,-0.05 0.3,1.9 0.3,-0.8 0.35,-0.15 0.3,-0.55 0.35,-0.25 0.3,-0.4 0.3,-0.2 0.35,0.65 0.3,-0.7 0.35,0.6 0.3,-0.75 0.35,-0.1 0.3,0.4 0.3,0.75 0.35,-2.35 0.3,1.55 0.35,2.05 0.3,-0.65 0.3,-0.3 0.35,-0.95 0.3,0.95 0.35,-0.6 0.3,0.65 0.35,-1.4 0.3,0.85 0.3,1.05 0.35,-0.05 0.3,-0.25 0.35,0.05 0.3,-0.05 0.3,0.15 0.35,0.85 0.3,-0.25 0.35,0.5 0.3,-0.85 0.35,0.25 0.3,-0.25 0.3,0.15 0.35,0.55 0.3,-0.05 0.35,0.4"
         style="fill:none;stroke:#ff31a3;stroke-width:1.24;stroke-linecap:butt;stroke-linejoin:miter;stroke-miterlimit:4;stroke-opacity:1;stroke-dasharray:4.96,2.48;stroke-dashoffset:0"
         id="path8886"
         inkscape:connector-curvature="0" /><path
         d="m 326.2,58.25 0.3,0.1 0.3,0.15 0.35,-0.8 0.3,-0.25 0.35,0 0.3,-0.45 0.3,0.65 0.35,-0.5 0.3,0.35 0.35,-0.45 0.3,0.65 0.35,-0.3 0.3,-1.75 0.3,-0.9 0.35,0.5 0.3,0.5 0.35,0.2 0.3,-1.55 0.3,-0.35 0.35,0.35 0.3,-0.6 0.35,1.1 0.3,-2.05 0.35,-0.2 0.3,-0.25 0.3,-0.1 0.35,0.95 0.3,-1.25 0.35,0.5 0.3,0.05 0.3,-0.7 0.35,-0.5 0.3,-0.1 0.35,0.1 0.3,0.05 0.35,0.25 0.3,-0.95 0.3,0.4 0.35,-1.3 0.3,0.95 0.35,-0.4 0.3,1.2 0.3,-2.9 0.35,2.95 0.3,-1.6 0.35,0.6 0.3,0.4 0.35,-1 0.3,0.25 0.3,0.05 0.35,-0.2 0.3,-0.65 0.35,1.05 0.3,-0.4"
         style="fill:none;stroke:#ff31a3;stroke-width:1.24;stroke-linecap:butt;stroke-linejoin:miter;stroke-miterlimit:4;stroke-opacity:1;stroke-dasharray:4.96,2.48;stroke-dashoffset:0"
         id="path8888"
         inkscape:connector-curvature="0" /></g><g
       id="g9514"><path
         d="m 300.75,188.35 29.55,0 m -237,-42.65 0.35,-2.05 0.3,-0.8 0.35,-1.15 0.3,-1.1 0.3,-1.55 0.35,-1.55 0.3,-0.65 0.35,-1.1 0.3,-1.65 0.3,-0.25 0.35,-1.45 0.3,-1.15 0.35,-1.1 0.3,-0.85 0.35,-1.45 0.3,-1.3 0.3,1.55 0.35,-2.45 0.3,-1.2 0.35,-1.3 0.3,0.1 0.3,-0.7 0.35,-2.2 0.3,1 0.35,-1.4 0.3,-1 0.35,-0.25 0.3,-0.8 0.3,-1.3 0.35,-0.65 0.3,-1.1 0.35,-0.4 0.3,-0.9 0.3,-0.55 0.35,-1.2 0.3,-0.5 0.35,-0.45 0.3,-1.4 0.3,-0.1 0.35,-1.25 0.3,0.2 0.35,-1.15 0.3,-0.55 0.35,-0.25 0.3,-0.45 0.3,-1.6 0.35,-0.15 0.3,-0.7 0.35,-0.2 0.3,-1.45 0.3,-0.45 0.35,-1.55 0.3,-0.45 0.35,-0.95 0.3,-0.85 0.35,-0.7 0.3,-0.4 0.3,-1.75 0.35,-0.3 0.3,-0.8 0.35,-1.55 0.3,0.3 0.3,-0.95 0.35,-1.15 0.3,-0.75 0.35,-0.55 0.3,-1.4 0.35,-0.4 0.3,-0.95 0.3,-0.85 0.35,-0.3 0.3,-0.45 0.35,-0.4 0.3,-0.35 0.3,-0.65 0.35,-1.1 0.3,-0.15 0.35,0.05 0.3,-0.2 0.35,-0.75 0.3,-0.3 0.3,-0.85 0.35,0.15 0.3,0.15 0.35,-0.7 0.3,-0.45 0.3,0.05 0.35,0.6 0.3,-0.4 0.35,-0.3 0.3,-0.15 0.3,-0.25 0.35,0.15 0.3,0.3 0.35,-0.6 0.3,0.55 0.35,-0.3 0.3,0.35 0.3,-0.35 0.35,-0.4 0.3,0.15 0.35,-0.45"
         style="fill:none;stroke:#659500;stroke-width:1.24;stroke-linecap:butt;stroke-linejoin:miter;stroke-miterlimit:10;stroke-opacity:1;stroke-dasharray:1.24,1.24;stroke-dashoffset:0"
         id="path8890"
         inkscape:connector-curvature="0" /><path
         d="m 126.05,78 0.3,-0.5 0.3,-0.1 0.35,-0.1 0.3,-0.4 0.35,-0.2 0.3,-0.5 0.35,-0.1 0.3,-1.05 0.3,0.2 0.35,-0.45 0.3,-0.35 0.35,-0.6 0.3,-0.1 0.3,-0.1 0.35,-0.9 0.3,0 0.35,-0.25 0.3,-0.05 0.35,-0.6 0.3,-0.1 0.3,0.2 0.35,-0.55 0.3,0.1 0.35,-0.05 0.3,-0.1 0.3,0.05 0.35,0.15 0.3,-0.25 0.35,0.2 0.3,-0.3 0.3,0 0.35,-0.25 0.3,-0.2 0.35,-0.1 0.3,-0.25 0.35,-0.55 0.3,0.15 0.3,-0.55 0.35,-0.4 0.3,-0.35 0.35,-0.25 0.3,-0.15 0.3,-0.3 0.35,-0.15 0.3,-0.3 0.35,0.15 0.3,-0.2 0.35,-0.05 0.3,0 0.3,-0.2 0.35,0.05 0.3,-0.05 0.35,0 0.3,-0.15 0.3,0.2 0.35,-0.15 0.3,0.2 0.35,-0.3 0.3,0.05 0.35,0.05 0.3,-0.05 0.3,0.15 0.35,-0.05 0.65,0 0.3,0.05 0.3,0.05 0.35,0 0.3,-0.25 1,0 0.3,-0.2 0.3,0.2 0.35,-0.2 0.3,0.15 0.35,-0.05 0.3,-0.15 0.3,0.25 0.35,-0.15 0.3,-0.1 0.35,0.1 0.3,-0.3 0.3,-0.25 0.35,0.15 0.3,0.05 0.35,-0.15 0.3,-0.1 0.35,-0.1 0.3,0.1 0.3,-0.05 0.35,0.3 0.3,0.75 0.35,-0.2 0.3,0 0.3,0.6 0.35,-0.5 0.3,-0.15 0.35,0.05 0.3,-0.25 0.35,-0.15 0.3,0.2 0.3,-0.6 0.35,-0.35"
         style="fill:none;stroke:#659500;stroke-width:1.24;stroke-linecap:butt;stroke-linejoin:miter;stroke-miterlimit:10;stroke-opacity:1;stroke-dasharray:1.24,1.24;stroke-dashoffset:0"
         id="path8892"
         inkscape:connector-curvature="0" /><path
         d="m 159.4,65.95 0.3,-0.15 0.35,-1 0.3,0 0.3,-0.8 0.35,0.1 0.3,-0.4 0.35,-0.05 0.3,-0.2 0.35,1.05 0.3,-1.05 0.3,0.55 0.35,-0.45 0.3,0.25 0.35,0.6 0.3,-0.4 0.3,0.05 0.35,0.15 0.3,1.6 0.35,-0.05 0.3,0.3 0.35,-0.1 0.3,0.2 0.3,0.3 0.35,-0.05 0.3,0.7 0.35,0.05 0.3,0.45 0.3,-0.45 0.35,-1.05 0.3,1.55 0.35,-0.8 0.3,-0.05 0.3,2.85 0.35,-2.6 0.3,0.4 0.35,-0.8 0.3,-0.1 0.35,0.65 0.3,-1.25 0.3,0.05 0.35,1.4 0.3,-1.9 0.35,0.75 0.3,0.7 0.3,-1.3 0.35,0.5 0.3,-0.75 0.35,0.35 0.3,0.55 0.35,-0.4 0.3,-0.25 0.3,1.4 0.35,-2.85 0.3,1.25 0.35,-0.1 0.3,-0.95 0.3,1.05 0.35,0.4 0.3,-0.55 0.35,0.55 0.3,-1 0.35,1.75 0.3,-1.05 0.3,0.75 0.35,-0.5 0.3,0.75 0.35,-0.55 0.3,1.25 0.3,1.15 0.35,-2.7 0.3,3.05 0.35,-1.7 0.3,0.25 0.35,1.4 0.3,-1.35 0.3,0.5 0.35,0.8 0.3,-0.4 0.35,0.25 0.3,-0.2 0.3,-1.1 0.35,0 0.3,0.25 0.35,2.25 0.3,-0.7 0.3,-0.6 0.35,0.1 0.3,0.2 0.35,-1.85 0.3,1.65 0.35,-1.2 0.3,-0.3 0.3,0.25 0.35,0.9 0.3,-1.3 0.35,1.15 0.3,-2 0.3,-0.5 0.35,0.25 0.3,1.25 0.35,0.6 0.3,-0.95 0.35,0.05 0.3,0.35"
         style="fill:none;stroke:#659500;stroke-width:1.24;stroke-linecap:butt;stroke-linejoin:miter;stroke-miterlimit:10;stroke-opacity:1;stroke-dasharray:1.24,1.24;stroke-dashoffset:0"
         id="path8894"
         inkscape:connector-curvature="0" /><path
         d="m 192.75,67.05 0.3,0.15 0.35,-0.6 0.3,0.1 0.35,0 0.3,-2.35 0.3,4.7 0.35,-2.45 0.3,0.55 0.35,-0.05 0.3,-1.55 0.35,0.2 0.3,1.25 0.3,0 0.35,-2.25 0.3,-0.3 0.35,0.55 0.3,-0.65 0.3,0.05 0.35,-0.6 0.3,1 0.35,-0.25 0.3,-0.2 0.3,-0.05 0.35,1.05 0.3,0.3 0.35,0.5 0.3,-1.05 0.35,-1.1 0.3,0.7 0.3,1.45 0.35,-0.4 0.3,0.65 0.35,-0.05 0.3,1.3 0.3,0.3 0.35,-0.15 0.3,-1.35 0.35,0.6 0.3,-0.9 0.35,-1.4 0.3,0.05 0.3,1.45 0.35,0 0.3,-0.9 0.35,-0.75 0.3,0.65 0.3,-1.7 0.35,1 0.3,0.8 0.35,0.7 0.3,-1.6 0.35,1.05 0.3,-1.15 0.3,-0.05 0.35,0.2 0.3,0.65 0.35,0.95 0.3,-1.25 0.3,-0.15 0.35,0.6 0.3,0.9 0.35,-0.95 0.3,-0.4 0.35,-1.3 0.3,1.55 0.3,-0.05 0.35,-1.1 0.3,0.8 0.35,0.15 0.3,-1.15 0.3,0 0.35,-0.25 0.3,0.8 0.35,-0.45 0.3,1.35 0.3,-0.35 0.35,0.6 0.3,0.05 0.35,-0.3 0.3,-1.25 0.35,-0.95 0.3,1.25 0.3,0.5 0.35,-0.25 0.3,1 0.35,0.3 0.3,-0.85 0.3,-0.1 0.35,0.2 0.3,-1.1 0.35,0.45 0.3,0.3 0.35,1.2 0.3,-0.3 0.3,-0.35 0.35,-1.65 0.3,1.25 0.35,0.95 0.3,-0.8 0.3,-0.45 0.35,0.45 0.3,1.7 0.35,-0.8 0.3,-0.6"
         style="fill:none;stroke:#659500;stroke-width:1.24;stroke-linecap:butt;stroke-linejoin:miter;stroke-miterlimit:10;stroke-opacity:1;stroke-dasharray:1.24,1.24;stroke-dashoffset:0"
         id="path8896"
         inkscape:connector-curvature="0" /><path
         d="m 226.1,65.3 0.35,0.4 0.3,-2.6 0.3,2.05 0.35,0.6 0.3,-0.3 0.35,-0.2 0.3,-0.6 0.3,-0.65 0.35,-0.55 0.3,0.45 0.35,0.25 0.3,-1.6 0.35,0.5 0.3,1.65 0.3,-0.1 0.35,-1.5 0.3,-0.4 0.35,0.2 0.3,-0.45 0.3,0.1 0.35,0.05 0.3,-1.3 0.35,2.1 0.3,-0.85 0.3,0.05 0.35,0.15 0.3,-0.85 0.35,0.4 0.3,0.35 0.35,-1.5 0.3,0.25 0.3,-0.75 0.35,1.85 0.3,-1.35 0.35,0.1 0.3,0.7 0.3,0.3 0.35,-0.25 0.3,1.7 0.35,-0.25 0.3,-0.4 0.35,-0.05 0.3,-1.3 0.3,0 0.35,-0.8 0.3,0.1 0.35,0.85 0.3,0.1 0.3,1.85 0.35,0 0.3,-0.65 0.35,-0.3 0.3,0.9 0.35,0.7 0.3,-0.65 0.3,0 0.35,-1.05 0.3,0.4 0.35,0.25 0.3,0.05 0.3,-1.9 0.35,0.4 0.3,0.35 0.35,-0.8 0.3,-0.4 0.35,0.15 0.3,0.15 0.3,0.1 0.35,-0.55 0.3,1.65 0.35,-1.75 0.3,0.95 0.3,0.85 0.35,-1.2 0.3,0.9 0.35,-0.5 0.3,1.05 0.3,-0.65 0.35,-1.05 0.3,0 0.35,-1.05 0.3,0.05 0.35,1.15 0.3,1.7 0.3,-0.7 0.35,-0.1 0.3,0.75 0.35,-1.1 0.3,-0.2 0.3,0.25 0.35,1 0.3,0.25 0.35,-1.35 0.3,0.05 0.35,0.05 0.3,2.35 0.3,-1.5 0.35,-0.9 0.3,-0.45 0.35,1.25 0.3,0.45 0.3,-1.15 0.35,0.35 0.3,-1.35"
         style="fill:none;stroke:#659500;stroke-width:1.24;stroke-linecap:butt;stroke-linejoin:miter;stroke-miterlimit:10;stroke-opacity:1;stroke-dasharray:1.24,1.24;stroke-dashoffset:0"
         id="path8898"
         inkscape:connector-curvature="0" /><path
         d="m 259.45,61 0.35,-0.75 0.3,1.2 0.35,0 0.3,-0.5 0.3,0.3 0.35,-0.5 0.3,0.3 0.35,-0.45 0.3,-0.05 0.3,0.2 0.35,0.05 0.3,1.7 0.35,-0.25 0.3,-0.2 0.3,0.7 0.35,0.05 0.3,0.65 0.35,-0.15 0.3,-1.7 0.35,3.3 0.3,-1 0.3,-2 0.35,0.05 0.3,0.5 0.35,-0.65 0.3,-0.05 0.3,-0.6 0.35,0.55 0.3,0.3 0.35,-0.85 0.3,0.55 0.35,-0.15 0.3,-0.45 0.3,2.45 0.35,-3.4 0.3,0.6 0.35,0.55 0.3,-0.8 0.3,3.8 0.35,-2.9 0.3,3.2 0.35,-4.85 0.3,4.75 0.35,-4.1 0.3,2.85 0.3,-3.5 0.35,2.7 0.3,-0.1 0.35,-1.85 0.3,0.2 0.3,-0.3 0.35,0.4 0.3,-0.6 0.35,-0.5 0.3,1.2 0.35,-1 0.3,0 0.3,-0.4 0.35,-0.45 0.3,0.5 0.35,0.65 0.3,-0.1 0.3,-0.25 0.35,0.2 0.3,-0.75 0.35,0.85 0.3,-0.35 0.3,-0.65 0.35,-0.55 0.3,1.55 0.35,-0.3 0.3,-0.25 0.35,0.55 0.3,0.05 0.3,0.2 0.35,0.8 0.3,-0.95 0.35,0.5 0.3,-0.3 0.3,-1.8 0.35,0.25 0.3,2.75 0.35,-1.35 0.3,-1.25 0.35,0.4 0.3,-0.1 0.3,0.5 0.35,-1.15 0.3,0.7 0.35,-0.6 0.3,2.2 0.3,-2.6 0.35,-0.4 0.3,-0.1 0.35,0.95 0.3,-0.8 0.35,-0.45 0.3,0.95 0.3,-1.25 0.35,0.9 0.3,-0.55 0.35,2.05 0.3,-0.85 0.3,0.45"
         style="fill:none;stroke:#659500;stroke-width:1.24;stroke-linecap:butt;stroke-linejoin:miter;stroke-miterlimit:10;stroke-opacity:1;stroke-dasharray:1.24,1.24;stroke-dashoffset:0"
         id="path8900"
         inkscape:connector-curvature="0" /><path
         d="m 292.8,59.3 0.35,-0.7 0.3,-0.2 0.35,0 0.3,-0.15 0.35,0.05 0.3,-1.25 0.3,0.9 0.35,-1 0.3,0 0.35,0.5 0.3,-1.35 0.3,0.55 0.35,-0.7 0.3,0.8 0.35,1.3 0.3,-2.85 0.3,1.15 0.35,1.35 0.3,-0.2 0.35,-0.8 0.3,0.3 0.35,0.85 0.3,0.4 0.3,0 0.35,-0.55 0.3,0 0.35,1.35 0.3,0.05 0.3,0.3 0.35,-2.05 0.3,0.7 0.35,0.95 0.3,-0.65 0.35,0.65 0.3,-1.85 0.3,2.95 0.35,-2.85 0.3,3.95 0.35,-4.25 0.3,3.3 0.3,-2.8 0.35,2.7 0.3,-1.3 0.35,-0.8 0.3,1.45 0.35,-0.8 0.3,3.15 0.3,-3.6 0.35,1.45 0.3,-0.15 0.35,-1.55 0.3,1.65 0.3,-0.4 0.35,-0.25 0.3,0.1 0.35,-0.05 0.3,-1.1 0.35,0.2 0.3,-0.15 0.3,-0.7 0.35,-0.25 0.3,-1.6 0.35,0 0.3,1.85 0.3,-0.75 0.35,-0.1 0.3,-0.55 0.35,-0.25 0.3,-0.35 0.3,-0.15 0.35,0.6 0.3,-0.65 0.35,0.65 0.3,-0.7 0.35,-0.1 0.3,0.4 0.3,0.75 0.35,-2.3 0.3,1.5 0.35,2 0.3,-0.65 0.3,-0.3 0.35,-0.9 0.3,0.95 0.35,-0.6 0.3,0.6 0.35,-1.4 0.3,0.9 0.3,1.05 0.35,-0.05 0.3,-0.3 0.35,0.1 0.3,-0.05 0.3,0.15 0.35,0.85 0.3,-0.2 0.35,0.5 0.3,-0.85 0.35,0.25 0.3,-0.25 0.3,0.15 0.35,0.55 0.3,-0.05 0.35,0.4"
         style="fill:none;stroke:#659500;stroke-width:1.24;stroke-linecap:butt;stroke-linejoin:miter;stroke-miterlimit:10;stroke-opacity:1;stroke-dasharray:1.24,1.24;stroke-dashoffset:0"
         id="path8902"
         inkscape:connector-curvature="0" /><path
         d="m 326.2,58.15 0.3,0.1 0.3,0.15 0.35,-0.8 0.3,-0.25 0.35,0 0.3,-0.45 0.3,0.6 0.35,-0.5 0.3,0.3 0.35,-0.45 0.3,0.7 0.35,-0.35 0.3,-1.8 0.3,-0.85 0.35,0.45 0.3,0.5 0.35,0.2 0.3,-1.55 0.3,-0.35 0.35,0.4 0.3,-0.65 0.35,1.1 0.3,-2.05 0.35,-0.2 0.3,-0.2 0.3,-0.1 0.35,0.95 0.3,-1.3 0.35,0.55 0.3,0.05 0.3,-0.7 0.35,-0.5 0.3,-0.1 0.35,0.1 0.3,0 0.35,0.25 0.3,-1 0.3,0.4 0.35,-1.3 0.3,0.95 0.35,-0.4 0.3,1.1 0.3,-2.8 0.35,2.85 0.3,-1.5 0.35,0.55 0.3,0.4 0.35,-1 0.3,0.25 0.3,0.1 0.35,-0.2 0.3,-0.65 0.35,1.1 0.3,-0.4"
         style="fill:none;stroke:#659500;stroke-width:1.24;stroke-linecap:butt;stroke-linejoin:miter;stroke-miterlimit:10;stroke-opacity:1;stroke-dasharray:1.24,1.24;stroke-dashoffset:0"
         id="path8904"
         inkscape:connector-curvature="0" /></g><g
       id="g9524"
       style="stroke:#398997;stroke-opacity:1;stroke-width:1.24;stroke-miterlimit:4;stroke-dasharray:4.96,2.48,1.24,2.48;stroke-dashoffset:0"><path
         d="m 300.75,177.35 29.55,0 m -237,-37.55 0.35,-1.95 0.3,-0.9 0.35,-1.25 0.3,-1.1 0.3,-1.6 0.35,-1.6 0.3,-0.6 0.35,-1.1 0.3,-1.65 0.3,-0.25 0.35,-1.35 0.3,-1.15 0.35,-1.05 0.3,-0.85 0.35,-1.35 0.3,-1.2 0.3,1.5 0.35,-2.3 0.3,-1.15 0.35,-1.2 0.3,0.1 0.3,-0.65 0.35,-2.05 0.3,0.95 0.35,-1.4 0.3,-0.9 0.35,-0.3 0.3,-0.75 0.3,-1.25 0.35,-0.6 0.3,-1.05 0.35,-0.35 0.3,-0.85 0.3,-0.5 0.35,-1.1 0.3,-0.45 0.35,-0.35 0.3,-1.3 0.3,0.1 0.35,-1.2 0.3,0.3 0.35,-1.05 0.3,-0.45 0.35,-0.15 0.3,-0.4 0.3,-1.55 0.35,-0.15 0.3,-0.6 0.35,-0.2 0.3,-1.35 0.3,-0.5 0.35,-1.45 0.3,-0.45 0.35,-0.9 0.3,-0.8 0.35,-0.65 0.3,-0.35 0.3,-1.65 0.35,-0.15 0.3,-0.8 0.35,-1.4 0.3,0.3 0.3,-0.8 0.35,-1.05 0.3,-0.7 0.35,-0.45 0.3,-1.3 0.35,-0.4 0.3,-0.85 0.3,-0.75 0.35,-0.3 0.3,-0.45 0.35,-0.4 0.3,-0.25 0.3,-0.6 0.35,-1.1 0.3,-0.15 0.35,0.1 0.3,-0.2 0.35,-0.7 0.3,-0.25 0.3,-0.8 0.35,0.15 0.3,0.2 0.35,-0.65 0.3,-0.45 0.3,0.05 0.35,0.65 0.3,-0.4 0.35,-0.25 0.3,-0.1 0.3,-0.25 0.35,0.15 0.3,0.35 0.35,-0.6 0.3,0.55 0.35,-0.3 0.3,0.35 0.3,-0.4 0.35,-0.4 0.3,0.15 0.35,-0.4"
         style="fill:none;stroke:#398997;stroke-width:1.24;stroke-linecap:butt;stroke-linejoin:miter;stroke-miterlimit:4;stroke-opacity:1;stroke-dasharray:4.96,2.48,1.24,2.48;stroke-dashoffset:0"
         id="path8906"
         inkscape:connector-curvature="0" /><path
         d="m 126.05,76.4 0.3,-0.45 0.3,-0.1 0.35,-0.05 0.3,-0.35 0.35,-0.15 0.3,-0.55 0.35,-0.05 0.3,-0.95 0.3,0.2 0.35,-0.4 0.3,-0.35 0.35,-0.5 0.3,-0.1 0.3,-0.05 0.35,-0.95 0.3,0.1 0.35,-0.2 0.3,-0.05 0.35,-0.6 0.3,-0.1 0.3,0.2 0.35,-0.5 0.3,0.15 0.35,-0.05 0.3,-0.15 0.3,0.1 0.35,0.15 0.3,-0.2 0.35,0.15 0.3,-0.3 0.3,0.05 0.35,-0.25 0.3,-0.2 0.35,-0.15 0.3,-0.25 0.35,-0.55 0.3,0.1 0.3,-0.45 0.35,-0.5 0.3,-0.35 0.35,-0.25 0.3,-0.2 0.3,-0.35 0.35,-0.2 0.3,-0.2 0.35,-0.1 0.3,-0.2 0.35,-0.05 0.3,-0.1 0.3,-0.05 0.35,-0.05 0.3,-0.1 0.35,0 0.3,-0.15 0.3,0.05 0.35,0.05 0.3,-0.05 0.35,-0.05 0.95,0 0.3,0.1 0.35,-0.05 0.3,0.05 0.35,0 0.3,0.15 0.3,-0.1 0.35,0.1 0.3,-0.25 0.35,0 0.3,-0.05 0.35,-0.05 0.3,-0.15 0.3,0.05 0.65,0 0.35,-0.05 0.3,-0.05 0.3,0.1 0.35,-0.05 0.3,-0.05 0.35,0 0.3,-0.2 0.3,-0.15 0.35,0.05 0.3,-0.05 0.35,-0.1 0.3,-0.1 0.35,-0.1 0.3,0.1 0.3,0 0.35,0.2 0.3,0.5 0.35,-0.2 0.3,0.05 0.3,0.4 0.35,-0.45 0.3,-0.15 0.35,-0.05 0.3,-0.3 0.35,-0.15 0.3,0 0.3,-0.5 0.35,-0.4"
         style="fill:none;stroke:#398997;stroke-width:1.24;stroke-linecap:butt;stroke-linejoin:miter;stroke-miterlimit:4;stroke-opacity:1;stroke-dasharray:4.96,2.48,1.24,2.48;stroke-dashoffset:0"
         id="path8908"
         inkscape:connector-curvature="0" /><path
         d="m 159.4,63.85 0.3,-0.2 0.35,-0.7 0.3,-0.15 0.3,-0.65 0.35,0.1 0.3,-0.35 0.35,0 0.3,-0.2 0.35,0.85 0.3,-0.8 0.3,0.5 0.35,-0.4 0.3,0.2 0.35,0.45 0.3,-0.3 0.3,0 0.35,0.1 0.3,1.2 0.35,-0.05 0.3,0.25 0.35,-0.05 0.3,0.15 0.3,0.35 0.35,-0.1 0.3,0.7 0.35,0.05 0.3,0.4 0.3,-0.4 0.35,-0.75 0.3,1.3 0.35,-0.6 0.3,-0.15 0.3,2.5 0.35,-2.15 0.3,0.35 0.35,-0.7 0.3,0 0.35,0.55 0.3,-1.05 0.3,0.05 0.35,1.2 0.3,-1.5 0.35,0.6 0.3,0.65 0.3,-1.1 0.35,0.4 0.3,-0.6 0.35,0.35 0.3,0.4 0.35,-0.35 0.3,-0.25 0.3,1.15 0.35,-2.5 0.3,1.1 0.35,-0.15 0.3,-0.85 0.3,0.8 0.35,0.4 0.3,-0.55 0.35,0.45 0.3,-0.9 0.35,1.5 0.3,-0.85 0.3,0.6 0.35,-0.4 0.3,0.65 0.35,-0.45 0.3,1 0.3,1 0.35,-2.3 0.3,2.55 0.35,-1.5 0.3,0.15 0.35,1.2 0.3,-1.15 0.3,0.45 0.35,0.65 0.3,-0.35 0.35,0.25 0.3,-0.15 0.3,-0.95 0.35,0 0.3,0.2 0.35,2 0.3,-0.65 0.3,-0.45 0.35,0.05 0.3,0.2 0.35,-1.55 0.3,1.4 0.35,-1 0.3,-0.35 0.3,0.2 0.35,0.8 0.3,-1.2 0.35,1 0.3,-1.8 0.3,-0.4 0.35,0.15 0.3,1.1 0.35,0.5 0.3,-0.95 0.35,0.05 0.3,0.3"
         style="fill:none;stroke:#398997;stroke-width:1.24;stroke-linecap:butt;stroke-linejoin:miter;stroke-miterlimit:4;stroke-opacity:1;stroke-dasharray:4.96,2.48,1.24,2.48;stroke-dashoffset:0"
         id="path8910"
         inkscape:connector-curvature="0" /><path
         d="m 192.75,64.4 0.3,0.15 0.35,-0.5 0.3,0.1 0.35,0.05 0.3,-2 0.3,4.15 0.35,-2.1 0.3,0.55 0.35,0.05 0.3,-1.4 0.35,0.2 0.3,1.1 0.3,0 0.35,-2 0.3,-0.25 0.35,0.35 0.3,-0.65 0.3,-0.1 0.35,-0.6 0.3,0.85 0.35,-0.25 0.3,-0.2 0.3,-0.1 0.35,0.95 0.3,0.25 0.35,0.4 0.3,-0.95 0.35,-0.95 0.3,0.55 0.3,1.15 0.35,-0.45 0.3,0.65 0.35,-0.1 0.3,1.1 0.3,0.25 0.35,-0.15 0.3,-1.25 0.35,0.45 0.3,-0.8 0.35,-1.25 0.3,0 0.3,1.3 0.35,0 0.3,-0.8 0.35,-0.65 0.3,0.55 0.3,-1.45 0.35,0.85 0.3,0.75 0.35,0.65 0.3,-1.45 0.35,0.9 0.3,-0.95 0.3,-0.05 0.35,0.25 0.3,0.65 0.35,0.9 0.3,-1.15 0.3,-0.1 0.35,0.55 0.3,0.75 0.35,-0.95 0.3,-0.4 0.35,-1.25 0.3,1.3 0.3,-0.15 0.35,-1 0.3,0.65 0.35,0.2 0.3,-1.1 0.3,-0.05 0.35,-0.3 0.3,0.85 0.35,-0.45 0.3,1.2 0.3,-0.35 0.35,0.55 0.3,0.1 0.35,-0.25 0.3,-1.1 0.35,-0.85 0.3,1.15 0.3,0.6 0.35,-0.25 0.3,1 0.35,0.3 0.3,-0.8 0.3,-0.05 0.35,0.2 0.3,-0.9 0.35,0.35 0.3,0.3 0.35,1.05 0.3,-0.25 0.3,-0.2 0.35,-1.5 0.3,1.1 0.35,0.9 0.3,-0.7 0.3,-0.35 0.35,0.4 0.3,1.6 0.35,-0.7 0.3,-0.5"
         style="fill:none;stroke:#398997;stroke-width:1.24;stroke-linecap:butt;stroke-linejoin:miter;stroke-miterlimit:4;stroke-opacity:1;stroke-dasharray:4.96,2.48,1.24,2.48;stroke-dashoffset:0"
         id="path8912"
         inkscape:connector-curvature="0" /><path
         d="m 226.1,62.55 0.35,0.35 0.3,-2.35 0.3,1.85 0.35,0.6 0.3,-0.5 0.35,-0.05 0.3,-0.55 0.3,-0.65 0.35,-0.5 0.3,0.4 0.35,0.2 0.3,-1.45 0.35,0.4 0.3,1.5 0.3,-0.15 0.35,-1.4 0.3,-0.35 0.35,0.15 0.3,-0.4 0.3,0.05 0.35,0.05 0.3,-1.2 0.35,2 0.3,-0.8 0.3,0 0.35,0.2 0.3,-0.8 0.35,0.3 0.3,0.3 0.35,-1.35 0.3,0.25 0.3,-0.8 0.35,1.75 0.3,-1.2 0.35,0 0.3,0.65 0.3,0.25 0.35,-0.15 0.3,1.45 0.35,-0.15 0.3,-0.4 0.35,-0.1 0.3,-1.15 0.3,-0.05 0.35,-0.8 0.3,0.05 0.35,0.75 0.3,0.2 0.3,1.7 0.35,-0.05 0.3,-0.6 0.35,-0.3 0.3,0.8 0.35,0.7 0.3,-0.6 0.3,0.05 0.35,-1 0.3,0.5 0.35,0.25 0.3,0.2 0.3,-1.65 0.35,0.45 0.3,0.45 0.35,-0.65 0.3,-0.3 0.35,0.25 0.3,0.25 0.3,0.1 0.35,-0.4 0.3,1.6 0.35,-1.55 0.3,0.95 0.3,0.8 0.35,-1.1 0.3,0.9 0.35,-0.55 0.3,1.15 0.3,-0.7 0.35,-0.95 0.3,0.05 0.35,-1.05 0.3,0.05 0.35,1 0.3,1.55 0.3,-0.7 0.35,-0.15 0.3,0.7 0.35,-1.05 0.3,-0.3 0.3,0.2 0.35,0.8 0.3,0.2 0.35,-1.25 0.3,-0.05 0.35,0 0.3,2.05 0.3,-1.45 0.35,-0.9 0.3,-0.45 0.35,1.05 0.3,0.35 0.3,-1.15 0.35,0.3 0.3,-1.3"
         style="fill:none;stroke:#398997;stroke-width:1.24;stroke-linecap:butt;stroke-linejoin:miter;stroke-miterlimit:4;stroke-opacity:1;stroke-dasharray:4.96,2.48,1.24,2.48;stroke-dashoffset:0"
         id="path8914"
         inkscape:connector-curvature="0" /><path
         d="m 259.45,58.15 0.35,-0.7 0.3,1.05 0.35,0 0.3,-0.55 0.3,0.35 0.35,-0.45 0.3,0.2 0.35,-0.2 0.3,0 0.3,0.2 0.35,0.1 0.3,1.6 0.35,-0.15 0.3,-0.1 0.3,0.65 0.35,0.05 0.3,0.65 0.35,-0.15 0.3,-1.55 0.35,3 0.3,-0.9 0.3,-1.85 0.35,0.05 0.3,0.5 0.35,-0.6 0.3,-0.05 0.3,-0.55 0.35,0.45 0.3,0.3 0.35,-0.8 0.3,0.55 0.35,-0.15 0.3,-0.45 0.3,2.2 0.35,-3.1 0.3,0.4 0.35,0.7 0.3,-0.8 0.3,3.35 0.35,-2.55 0.3,2.9 0.35,-4.35 0.3,4.45 0.35,-3.95 0.3,2.75 0.3,-3.2 0.35,2.55 0.3,-0.05 0.35,-1.75 0.3,0.2 0.3,-0.4 0.35,0.45 0.3,-0.55 0.35,-0.55 0.3,1.15 0.35,-1 0.3,-0.05 0.3,-0.4 0.35,-0.45 0.3,0.5 0.35,0.6 0.3,-0.1 0.3,-0.2 0.35,0.1 0.3,-0.65 0.35,0.8 0.3,-0.3 0.3,-0.5 0.35,-0.5 0.3,1.45 0.35,-0.25 0.3,-0.05 0.35,0.15 0.3,0.2 0.3,0.1 0.35,0.7 0.3,-0.95 0.35,0.5 0.3,-0.25 0.3,-1.6 0.35,0.3 0.3,2.55 0.35,-1.2 0.3,-1.25 0.35,0.5 0.3,-0.1 0.3,0.4 0.35,-1 0.3,0.6 0.35,-0.65 0.3,2.1 0.3,-2.3 0.35,-0.45 0.3,-0.05 0.35,0.9 0.3,-0.65 0.35,-0.4 0.3,1 0.3,-1.15 0.35,0.9 0.3,-0.4 0.35,1.95 0.3,-0.75 0.3,0.45"
         style="fill:none;stroke:#398997;stroke-width:1.24;stroke-linecap:butt;stroke-linejoin:miter;stroke-miterlimit:4;stroke-opacity:1;stroke-dasharray:4.96,2.48,1.24,2.48;stroke-dashoffset:0"
         id="path8916"
         inkscape:connector-curvature="0" /><path
         d="m 292.8,57.65 0.35,-0.65 0.3,-0.15 0.35,-0.05 0.3,-0.2 0.35,0 0.3,-1.1 0.3,0.8 0.35,-0.9 0.3,-0.1 0.35,0.4 0.3,-1.2 0.3,0.5 0.35,-0.6 0.3,0.8 0.35,1.15 0.3,-2.55 0.3,1.05 0.35,1.2 0.3,-0.15 0.35,-0.75 0.3,0.3 0.35,0.9 0.3,0.35 0.3,0 0.35,-0.5 0.3,0 0.35,1.3 0.3,0.05 0.3,0.25 0.35,-1.8 0.3,0.6 0.35,0.85 0.3,-0.6 0.35,0.65 0.3,-1.65 0.3,2.7 0.35,-2.45 0.3,3.45 0.35,-3.9 0.3,3.05 0.3,-2.55 0.35,2.4 0.3,-1.2 0.35,-0.75 0.3,1.3 0.35,-0.85 0.3,2.9 0.3,-3.25 0.35,1.2 0.3,-0.1 0.35,-1.5 0.3,1.45 0.3,-0.35 0.35,-0.25 0.3,0.05 0.35,-0.2 0.3,-1 0.35,0.1 0.3,-0.25 0.3,-0.6 0.35,-0.35 0.3,-1.55 0.35,-0.05 0.3,1.65 0.3,-0.8 0.35,-0.1 0.3,-0.55 0.35,-0.25 0.3,-0.25 0.3,-0.2 0.35,0.75 0.3,-0.7 0.35,0.75 0.3,-0.7 0.35,-0.1 0.3,0.3 0.3,0.65 0.35,-2.2 0.3,1.5 0.35,1.9 0.3,-0.55 0.3,-0.3 0.35,-0.7 0.3,0.8 0.35,-0.45 0.3,0.65 0.35,-1.2 0.3,0.75 0.3,1 0.35,-0.05 0.3,-0.2 0.35,0.05 0.3,-0.15 0.3,0.1 0.35,0.75 0.3,-0.3 0.35,0.35 0.3,-0.8 0.35,0.15 0.3,-0.15 0.3,0.15 0.35,0.6 0.3,0 0.35,0.45"
         style="fill:none;stroke:#398997;stroke-width:1.24;stroke-linecap:butt;stroke-linejoin:miter;stroke-miterlimit:4;stroke-opacity:1;stroke-dasharray:4.96,2.48,1.24,2.48;stroke-dashoffset:0"
         id="path8918"
         inkscape:connector-curvature="0" /><path
         d="m 326.2,55.9 0.3,0.2 0.3,0.2 0.35,-0.7 0.3,-0.3 0.35,0.1 0.3,-0.45 0.3,0.6 0.35,-0.6 0.3,0.3 0.35,-0.55 0.3,0.6 0.35,-0.35 0.3,-1.65 0.3,-0.85 0.35,0.4 0.3,0.35 0.35,0.2 0.3,-1.55 0.3,-0.35 0.35,0.35 0.3,-0.65 0.35,1.1 0.3,-2 0.35,-0.3 0.3,-0.15 0.3,-0.1 0.35,0.9 0.3,-1.25 0.35,0.55 0.3,-0.1 0.3,-0.6 0.35,-0.55 0.3,-0.2 0.35,0.1 0.3,0.1 0.35,0.25 0.3,-0.95 0.3,0.5 0.35,-1.2 0.3,0.9 0.35,-0.3 0.3,1.2 0.3,-2.6 0.35,2.75 0.3,-1.35 0.35,0.5 0.3,0.45 0.35,-0.85 0.3,0.2 0.3,0.05 0.35,-0.15 0.3,-0.55 0.35,0.95 0.3,-0.35"
         style="fill:none;stroke:#398997;stroke-width:1.24;stroke-linecap:butt;stroke-linejoin:miter;stroke-miterlimit:4;stroke-opacity:1;stroke-dasharray:4.96,2.48,1.24,2.48;stroke-dashoffset:0"
         id="path8920"
         inkscape:connector-curvature="0" /></g><g
       id="g9572"
       style="stroke:#00a25c;stroke-opacity:1;stroke-width:1.24;stroke-miterlimit:4;stroke-dasharray:7.44,1.24;stroke-dashoffset:0"><path
         d="m 300.75,166.35 29.55,0 M 93.3,54.4 l 0.35,-0.35 0.3,-0.15 0.35,-0.3 0.3,-0.4 0.3,-0.5 0.35,-0.1 0.3,-0.5 0.35,-0.35 0.3,-0.5 0.3,0 0.35,-0.45 0.3,-0.4 0.35,-0.35 0.3,-0.2 0.35,-0.45 0.3,-0.5 0.3,0.35 0.35,-0.9 0.3,-0.45 0.35,-0.5 0.3,-0.2 0.3,-0.35 0.35,-0.8 0.3,0.5 0.35,-0.35 0.3,-0.05 0.35,0.2 0.3,0.25 0.3,-0.05 0.35,0.25 0.3,0.1 0.35,0.45 0.3,0 0.3,0.75 0.35,-0.25 0.3,-0.2 0.35,0.45 0.3,0.05 0.3,1 0.35,-0.35 0.3,0.6 0.35,0.1 0.3,0.25 0.35,0.1 0.3,0.15 0.3,-0.3 0.35,0 0.3,-0.35 0.35,-0.25 0.3,-0.45 0.3,-0.2 0.35,-0.55 0.3,-0.3 0.35,-0.35 0.3,-0.25 0.35,-0.25 0.3,-0.05 0.3,-0.4 0.35,-0.35 0.3,-0.4 0.35,-0.55 0.3,0.05 0.3,-0.15 0.35,-0.4 0.3,-0.2 0.35,0.05 0.3,-0.4 0.35,0.4 0.3,-0.15 0.3,0.05 0.35,0.2 0.3,0 0.35,0.25 0.3,-0.1 0.3,-0.3 0.35,-0.45 0.3,0.1 0.35,-0.1 0.3,-0.2 0.35,-0.5 0.3,0.05 0.3,-0.3 0.35,-0.1 0.3,-0.3 0.35,-0.6 0.3,-0.3 0.3,-0.45 0.35,0 0.3,-0.45 0.35,-0.15 0.3,0 0.3,0.1 0.35,0.5 0.3,0.55 0.35,0.6 0.3,0.7 0.35,0.4 0.3,0.8 0.3,0.4 0.35,0.2 0.3,0.4 0.35,0.15"
         style="fill:none;stroke:#00a25c;stroke-width:1.24;stroke-linecap:butt;stroke-linejoin:miter;stroke-miterlimit:4;stroke-opacity:1;stroke-dasharray:7.44,1.24;stroke-dashoffset:0"
         id="path8922"
         inkscape:connector-curvature="0" /><path
         d="m 126.05,45.35 0.3,0.05 0.65,0 0.3,-0.05 0.35,-0.1 0.3,-0.35 0.35,-0.05 0.3,-0.25 0.3,0 0.35,-0.15 0.3,0.05 0.35,0.05 0.3,-0.05 0.3,0.05 0.35,0.1 0.3,0.1 0.35,0.05 0.3,0.05 0.35,0.3 0.3,0.2 0.3,0.15 0.35,0.2 0.3,0.4 0.35,0.35 0.3,0.05 0.3,0.1 0.35,-0.3 0.3,-0.2 0.35,-0.35 0.3,-0.3 0.3,-0.1 0.35,-0.85 0.3,-0.3 0.35,-0.5 0.3,-0.7 0.35,-0.4 0.3,-1 0.3,-0.35 0.35,-0.5 0.3,-0.3 0.35,-0.35 0.3,0 0.3,-0.25 0.35,0 0.3,0.3 0.35,-0.25 0.3,0.15 0.35,0.25 0.3,-0.3 0.3,0.65 0.35,-0.25 0.3,0 0.35,0.2 0.3,0 0.3,-0.35 0.35,0.85 0.3,-0.55 0.35,0.55 0.3,0.2 0.35,0.05 0.3,0.35 0.3,0.4 0.35,0.15 0.3,0.15 0.35,0.25 0.3,0.3 0.3,-0.25 0.35,0.3 0.3,-0.3 0.35,-0.15 0.3,-0.1 0.35,-0.1 0.3,-0.1 0.3,-0.25 0.35,0.4 0.3,-0.3 0.35,0.15 0.3,0.3 0.3,0.15 0.35,0.55 0.3,0.15 0.35,0.05 0.3,0.2 0.3,0.2 0.35,0.15 0.3,0.2 0.35,0.5 0.3,0.4 0.35,0.55 0.3,0.35 0.3,0.65 0.35,0.45 0.3,0.65 0.35,0.15 0.3,0.35 0.3,0.15 0.35,-0.25 0.3,-0.15 0.35,-0.15 0.3,-0.5 0.35,-0.5 0.3,-0.35 0.3,-0.8 0.35,-0.8"
         style="fill:none;stroke:#00a25c;stroke-width:1.24;stroke-linecap:butt;stroke-linejoin:miter;stroke-miterlimit:4;stroke-opacity:1;stroke-dasharray:7.44,1.24;stroke-dashoffset:0"
         id="path8924"
         inkscape:connector-curvature="0" /><path
         d="m 159.4,44.9 0.3,-0.65 0.35,-1 0.3,-1 0.3,-1 0.35,-0.6 0.3,-0.7 0.35,-0.2 0.3,-0.3 0.35,0.4 0.3,0 0.3,0.25 0.35,-0.05 0.3,0 0.35,0.05 0.3,0 0.3,0.2 0.35,0.05 0.3,0.4 0.35,0.15 0.3,0.4 0.35,0.4 0.3,0.6 0.3,0.6 0.35,0.6 0.3,0.65 0.35,0.55 0.3,0.55 0.3,0.5 0.35,0.4 0.3,-0.05 0.35,0.25 0.3,-0.15 0.3,-0.05 0.35,-0.35 0.3,-0.2 0.35,-0.05 0.3,-0.1 0.35,-0.2 0.3,-0.2 0.3,-0.15 0.35,0.05 0.3,-0.15 0.35,-0.15 0.3,0.05 0.3,-0.2 0.35,0.1 0.3,-0.3 0.35,0.15 0.3,0.05 0.35,-0.25 0.3,-0.45 0.3,-0.05 0.35,-0.9 0.3,-0.05 0.35,-0.5 0.3,-0.35 0.3,-0.2 0.35,0.2 0.3,-0.2 0.35,0.2 0.3,0 0.35,0.7 0.3,0.2 0.3,0.4 0.35,0.15 0.3,0.3 0.35,0.3 0.3,0.3 0.3,0.6 0.35,-0.7 0.3,0.7 0.35,-0.5 0.3,0.1 0.35,0.15 0.3,-0.1 0.3,0.1 0.35,0 0.3,-0.15 0.35,-0.1 0.3,-0.05 0.3,-0.1 0.35,0.15 0.3,-0.1 0.35,0 0.3,-0.15 0.3,0.05 0.35,-0.15 0.3,0.75 0.35,0.3 0.3,-0.35 0.35,-0.25 0.3,-0.25 0.3,-0.2 0.35,-0.45 0.3,-0.65 0.35,-0.4 0.3,-0.55 0.3,-0.3 0.35,-0.3 0.3,-0.15 0.35,0.1 0.3,0.25 0.35,0.55 0.3,0.55"
         style="fill:none;stroke:#00a25c;stroke-width:1.24;stroke-linecap:butt;stroke-linejoin:miter;stroke-miterlimit:4;stroke-opacity:1;stroke-dasharray:7.44,1.24;stroke-dashoffset:0"
         id="path8926"
         inkscape:connector-curvature="0" /><path
         d="m 192.75,42.7 0.3,0.65 0.35,0.75 0.3,0.55 0.35,0.35 0.3,0.4 0.3,0.35 0.35,0.05 0.3,0.05 0.35,0.25 0.3,-0.1 0.35,-0.2 0.3,-0.25 0.3,-0.3 0.35,-0.65 0.3,-0.65 0.35,-0.4 0.3,-0.55 0.3,-0.5 0.35,0.15 0.3,0.2 0.35,0.1 0.3,0.2 0.3,0.35 0.35,1.2 0.3,0.4 0.35,0.45 0.3,-0.15 0.35,0.15 0.3,0.35 0.3,0.3 0.35,-0.2 0.3,0.75 0.35,-0.05 0.3,0.45 0.3,0 0.35,-0.15 0.3,-0.55 0.35,-0.55 0.3,-0.25 0.35,-0.7 0.3,-0.3 0.3,-0.05 0.35,-0.05 0.3,-0.8 0.35,-0.55 0.3,-0.15 0.3,-0.3 0.35,-0.05 0.3,0.2 0.35,0.25 0.3,-0.05 0.35,0.3 0.3,0.4 0.3,0.35 0.35,0.4 0.3,0.55 0.35,0.55 0.3,-0.1 0.3,0.1 0.35,0.15 0.3,0.05 0.35,-0.4 0.3,0 0.35,-0.55 0.3,-0.45 0.3,-0.2 0.35,-0.35 0.3,-0.3 0.35,-0.5 0.3,-0.2 0.3,-0.1 0.35,-0.15 0.3,-0.3 0.35,-0.1 0.3,-0.4 0.3,0 0.35,0.05 0.3,-0.45 0.35,0 0.3,-0.05 0.35,0.2 0.3,-0.15 0.3,0.05 0.35,0.25 0.3,0.1 0.35,0.15 0.3,0.25 0.3,0.1 0.35,0.25 0.3,0.3 0.35,-0.2 0.3,0.15 0.35,-0.15 0.3,0.2 0.3,0 0.35,0.25 0.3,-0.1 0.35,-0.2 0.3,0.1 0.3,-0.05 0.35,-0.2 0.3,-0.1 0.35,-0.25 0.3,-0.1"
         style="fill:none;stroke:#00a25c;stroke-width:1.24;stroke-linecap:butt;stroke-linejoin:miter;stroke-miterlimit:4;stroke-opacity:1;stroke-dasharray:7.44,1.24;stroke-dashoffset:0"
         id="path8928"
         inkscape:connector-curvature="0" /><path
         d="m 226.1,42.25 0.35,-0.4 0.3,0.3 0.3,-0.45 0.35,-0.05 0.3,-0.35 0.35,-0.3 0.3,-0.25 0.3,-0.25 0.35,-0.25 0.3,-0.2 0.35,-0.45 0.3,-0.05 0.35,-0.2 0.3,-0.2 0.3,0.2 0.35,0.05 0.3,0.55 0.35,-0.15 0.3,0.3 0.3,0.05 0.35,0.35 0.3,0.65 0.35,-0.3 0.3,0.5 0.3,0.1 0.35,0.25 0.3,-0.05 0.35,0.2 0.3,0.2 0.35,0.3 0.3,-0.4 0.3,-0.2 0.35,0.35 0.3,-0.35 0.35,0 0.3,0.2 0.3,0.1 0.35,0.15 0.3,0.1 0.35,-0.05 0.3,-0.2 0.35,-0.1 0.3,-0.25 0.3,-0.1 0.35,-0.5 0.3,0.1 0.35,0.25 0.3,-0.05 0.3,0.55 0.35,-0.05 0.3,0.15 0.35,-0.15 0.3,0.2 0.35,0.2 0.6,0 0.35,-0.2 0.3,0.15 0.35,-0.05 0.3,0.1 0.3,-0.15 0.35,-0.05 0.3,-0.3 0.35,0.15 0.3,0.3 0.35,0 0.3,0.2 0.3,0.3 0.35,-0.1 0.3,0.5 0.35,-0.1 0.3,0.25 0.3,0.35 0.35,0.05 0.3,0.35 0.35,0.1 0.3,0.6 0.3,-0.1 0.35,-0.05 0.3,0.3 0.35,-0.1 0.3,0.2 0.35,0.25 0.3,0.55 0.3,0 0.35,0.1 0.3,0.35 0.35,-0.15 0.3,-0.1 0.3,0.1 0.35,0.15 0.3,0.1 0.35,-0.2 0.3,-0.1 0.35,-0.2 0.3,0.45 0.3,-0.65 0.35,-0.45 0.3,-0.35 0.35,0 0.3,-0.05 0.3,-0.65 0.35,-0.1 0.3,-0.8"
         style="fill:none;stroke:#00a25c;stroke-width:1.24;stroke-linecap:butt;stroke-linejoin:miter;stroke-miterlimit:4;stroke-opacity:1;stroke-dasharray:7.44,1.24;stroke-dashoffset:0"
         id="path8930"
         inkscape:connector-curvature="0" /><path
         d="m 259.45,43.25 0.35,-0.6 0.3,0.35 0.35,-0.4 0.3,-0.25 0.3,0 0.35,-0.2 0.3,-0.25 0.35,0.3 0.3,0.1 0.3,0.2 0.35,0.1 0.3,0.65 0.35,0.2 0.3,0.2 0.3,0.45 0.35,0.35 0.3,0.65 0.35,0.2 0.3,-0.4 0.35,1.2 0.3,-0.2 0.3,-0.45 0.35,0.05 0.3,0.25 0.35,0 0.3,0.45 0.3,-0.4 0.35,0.3 0.3,0.5 0.35,-0.45 0.3,0.35 0.35,0.1 0.3,-0.25 0.3,0.6 0.35,-0.55 0.3,-0.65 0.35,0.2 0.3,-0.2 0.3,0.8 0.35,-0.3 0.3,0.75 0.35,-1.2 0.3,1.5 0.35,-1.1 0.3,1.15 0.3,-0.8 0.35,0.7 0.3,0.1 0.35,-0.7 0.3,-0.15 0.3,-0.35 0.35,0 0.3,-0.65 0.35,-0.4 0.3,0.05 0.35,-0.55 0.3,-0.25 0.3,-0.1 0.35,-0.75 0.3,0.15 0.35,0.35 0.3,0 0.3,0.05 0.35,0.05 0.3,0.3 0.35,0.55 0.3,0.2 0.3,0.4 0.35,0.15 0.3,0.8 0.35,0.15 0.3,0.45 0.35,-0.3 0.3,0.15 0.3,-0.2 0.35,0.15 0.3,-0.5 0.35,-0.05 0.3,-0.4 0.3,-0.5 0.35,-0.3 0.3,0.15 0.35,-0.6 0.3,-0.9 0.35,-0.1 0.3,-0.35 0.3,-0.1 0.35,-0.5 0.3,0 0.35,-0.2 0.3,0.45 0.3,-0.4 0.35,-0.35 0.3,-0.1 0.35,0.25 0.3,-0.35 0.35,-0.15 0.3,0.2 0.3,-0.55 0.35,-0.1 0.3,-0.35 0.35,0.2 0.3,-0.3 0.3,0.05"
         style="fill:none;stroke:#00a25c;stroke-width:1.24;stroke-linecap:butt;stroke-linejoin:miter;stroke-miterlimit:4;stroke-opacity:1;stroke-dasharray:7.44,1.24;stroke-dashoffset:0"
         id="path8932"
         inkscape:connector-curvature="0" /><path
         d="m 292.8,41.05 0.35,-0.4 0.3,0.15 0.35,-0.05 0.3,0.15 0.35,0.05 0.3,0.25 0.3,0.25 0.35,0.35 0.3,0 0.35,-0.05 0.3,0.25 0.3,-0.05 0.35,0.35 0.3,0.2 0.35,-0.3 0.3,0.45 0.3,-0.15 0.35,-0.4 0.3,0.1 0.35,-0.25 0.3,-0.1 0.35,-0.15 0.3,-0.05 0.3,0.1 0.35,0.4 0.3,0.15 0.35,-0.15 0.3,0.15 0.3,0 0.35,0.85 0.3,-0.1 0.35,-0.1 0.3,0.2 0.35,-0.05 0.3,0.5 0.3,-0.6 0.35,0.75 0.3,-1.1 0.35,0.7 0.3,-0.75 0.3,0.85 0.35,-0.6 0.3,0.1 0.35,0.1 0.3,-0.15 0.35,0.35 0.3,-0.4 0.3,0.75 0.35,-0.45 0.3,0.25 0.35,0.2 0.3,-0.15 0.3,-0.05 0.35,0 0.3,-0.3 0.35,-0.5 0.3,-0.2 0.35,-0.5 0.3,-0.55 0.3,-0.2 0.35,-0.15 0.3,0.25 0.35,-0.15 0.3,-0.1 0.3,0.1 0.35,-0.15 0.3,0.1 0.35,-0.05 0.3,-0.25 0.3,-0.15 0.35,-0.1 0.3,-0.3 0.35,-0.15 0.3,-0.1 0.35,-0.05 0.3,0.35 0.3,0.6 0.35,-0.05 0.3,0.8 0.35,1.2 0.3,0.55 0.3,0.5 0.35,0.6 0.3,0.55 0.35,0.35 0.3,0.45 0.35,0.15 0.3,0.45 0.3,0.3 0.35,0.15 0.3,0.25 0.35,0.25 0.3,0.15 0.3,0.2 0.35,0.1 0.3,0.35 0.35,0.2 0.3,0.05 0.35,0.2 0.3,0.3 0.3,0.2 0.35,0.35 0.3,0.3 0.35,0.15"
         style="fill:none;stroke:#00a25c;stroke-width:1.24;stroke-linecap:butt;stroke-linejoin:miter;stroke-miterlimit:4;stroke-opacity:1;stroke-dasharray:7.44,1.24;stroke-dashoffset:0"
         id="path8934"
         inkscape:connector-curvature="0" /><path
         d="m 326.2,49.9 0.3,0.25 0.3,0.05 0.35,-0.3 0.3,-0.25 0.35,-0.15 0.3,-0.35 0.3,-0.1 0.35,-0.7 0.3,-0.3 0.35,-0.6 0.3,-0.35 0.35,-0.5 0.3,-0.85 0.3,-0.7 0.35,-0.4 0.3,-0.35 0.35,-0.35 0.3,-0.95 0.3,-0.4 0.35,-0.65 0.3,-0.3 0.35,0.2 0.3,-0.7 0.35,-0.3 0.3,-0.1 0.3,0 0.35,0.3 0.3,-0.1 0.35,0.2 0.3,0.05 0.3,-0.1 0.35,-0.1 0.3,0 0.35,-0.15 0.3,-0.05 0.35,0 0.3,-0.2 0.3,0.15 0.35,-0.15 0.3,-0.05 0.35,-0.05 0.3,0.15 0.3,0.05 1,0 0.3,0.1 0.35,0 0.3,0.1 0.3,-0.1 0.35,0.05 0.3,0 0.35,-0.1 0.3,0"
         style="fill:none;stroke:#00a25c;stroke-width:1.24;stroke-linecap:butt;stroke-linejoin:miter;stroke-miterlimit:4;stroke-opacity:1;stroke-dasharray:7.44,1.24;stroke-dashoffset:0"
         id="path8936"
         inkscape:connector-curvature="0" /></g><path
       inkscape:connector-curvature="0"
       id="path8938"
       style="fill:none;stroke:#000000;stroke-width:0.5;stroke-linecap:butt;stroke-linejoin:miter;stroke-miterlimit:10;stroke-opacity:1;stroke-dasharray:none"
       d="m 86.9,35.2 256.6,0 0,183.8 -256.6,0 0,-183.8 z" /><rect
       style="fill:none;stroke:#ffffff;stroke-width:1.55;stroke-linecap:square;stroke-miterlimit:4;stroke-opacity:1;stroke-dasharray:9.3,1.55;stroke-dashoffset:0"
       id="rect8940"
       width="450.47668"
       height="315.66736"
       x="0"
       y="-1.6620533e-07"
       transform="matrix(0.8,0,0,-0.8,0,252)" /></g></svg>