<?xml version="1.0" encoding="UTF-8" standalone="no"?>
<!-- Created with Inkscape (http://www.inkscape.org/) -->

<svg
   xmlns:dc="http://purl.org/dc/elements/1.1/"
   xmlns:cc="http://creativecommons.org/ns#"
   xmlns:rdf="http://www.w3.org/1999/02/22-rdf-syntax-ns#"
   xmlns:svg="http://www.w3.org/2000/svg"
   xmlns="http://www.w3.org/2000/svg"
   xmlns:sodipodi="http://sodipodi.sourceforge.net/DTD/sodipodi-0.dtd"
   xmlns:inkscape="http://www.inkscape.org/namespaces/inkscape"
   id="svg7380"
   version="1.1"
   inkscape:version="0.48.2 r9819"
   width="450"
   height="315"
   xml:space="preserve"
   sodipodi:docname="PqdotNorms5a.svg"><metadata
     id="metadata7386"><rdf:RDF><cc:Work
         rdf:about=""><dc:format>image/svg+xml</dc:format><dc:type
           rdf:resource="http://purl.org/dc/dcmitype/StillImage" /><dc:title></dc:title></cc:Work></rdf:RDF></metadata><defs
     id="defs7384" /><sodipodi:namedview
     pagecolor="#ffffff"
     bordercolor="#666666"
     borderopacity="1"
     objecttolerance="10"
     gridtolerance="10"
     guidetolerance="10"
     inkscape:pageopacity="0"
     inkscape:pageshadow="2"
     inkscape:window-width="1366"
     inkscape:window-height="713"
     id="namedview7382"
     showgrid="false"
     inkscape:zoom="2.1190756"
     inkscape:cx="288.41177"
     inkscape:cy="202.39135"
     inkscape:window-x="0"
     inkscape:window-y="26"
     inkscape:window-maximized="1"
     inkscape:current-layer="g7388" /><g
     id="g7388"
     inkscape:groupmode="layer"
     inkscape:label="ink_ext_XXXXXX"
     transform="matrix(1.25,0,0,-1.25,0,315)"><path
       inkscape:connector-curvature="0"
       id="path7392"
       style="fill:none;stroke:#000000;stroke-width:0.5;stroke-linecap:butt;stroke-linejoin:miter;stroke-miterlimit:10;stroke-opacity:1;stroke-dasharray:none"
       d="m 86.9,35.2 3.15,0 m 253.45,0 -3.15,0" /><path
       inkscape:connector-curvature="0"
       id="path7394"
       style="fill:none;stroke:#000000;stroke-width:0.5;stroke-linecap:butt;stroke-linejoin:miter;stroke-miterlimit:10;stroke-opacity:1;stroke-dasharray:none"
       d="m 86.9,65.85 3.15,0 m 253.45,0 -3.15,0 m -253.45,30.6 3.15,0 m 253.45,0 -3.15,0 M 86.9,127.1 l 3.15,0 m 253.45,0 -3.15,0 m -253.45,30.65 3.15,0 m 253.45,0 -3.15,0 m -253.45,30.6 3.15,0 m 253.45,0 -3.15,0 M 86.9,219 l 3.15,0 m 253.45,0 -3.15,0 M 86.9,35.2 l 0,3.15 m 0,180.65 0,-3.15 M 119,35.2 l 0,3.15 m 0,180.65 0,-3.15 m 32.05,-180.65 0,3.15 m 0,180.65 0,-3.15 m 32.1,-180.65 0,3.15 m 0,180.65 0,-3.15 M 215.2,35.2 l 0,3.15 m 0,180.65 0,-3.15 m 32.1,-180.65 0,3.15 m 0,180.65 0,-3.15 m 32.05,-180.65 0,3.15 m 0,180.65 0,-3.15 m 32.1,-180.65 0,3.15 m 0,180.65 0,-3.15 M 343.5,35.2 l 0,3.15 m 0,180.65 0,-3.15" /><path
       inkscape:connector-curvature="0"
       id="path7396"
       style="fill:none;stroke:#000000;stroke-width:0.5;stroke-linecap:butt;stroke-linejoin:miter;stroke-miterlimit:10;stroke-opacity:1;stroke-dasharray:none"
       d="m 86.9,35.2 256.6,0 0,183.8 -256.6,0 0,-183.8 z" /><g
       id="g8034"
       style="stroke:#002d93;stroke-opacity:1;stroke-width:1.24;stroke-miterlimit:4;stroke-dasharray:none"><path
         d="m 300.75,210.35 29.55,0 m -237,-54.9 0.35,1.8 0.3,1.75 0.35,1.6 0.3,1.7 0.3,1.4 0.35,1.7 0.3,1.35 0.35,1.5 0.3,1.45 0.3,1.4 0.35,1.15 0.3,1.2 0.35,1.05 0.3,1.15 0.35,1.1 0.3,1.1 0.3,1.05 0.35,1.15 0.3,1.2 0.35,1.2 0.3,1.4 0.3,1.3 0.35,1.35 0.3,1.4 0.35,1.35 0.3,1.4 0.35,1.3 0.3,1.4 0.3,1.25 0.35,1.25 0.3,1.15 0.35,1.5 0.3,1.1 0.3,1.5 0.35,1.95 0.3,1.3 0.35,1.1 0.3,0.75 0.3,0.25 0.35,0.3 0.3,-0.25 0.35,-0.25 0.3,-0.65 0.35,-0.7 0.3,-0.95 0.3,-1.3 0.35,-1.5 0.3,-0.9 0.35,-1.65 0.3,-1.4 0.3,-1.15 0.35,-1 0.3,-1 0.35,-1 0.3,-1.05 0.35,-0.95 0.3,-0.8 0.3,-1 0.35,-0.85 0.3,-0.75 0.35,-0.65 0.3,-0.85 0.3,-0.95 0.35,-0.25 0.3,-0.65 0.35,-0.75 0.3,-0.65 0.35,-0.7 0.3,-0.8 0.3,-0.6 0.35,-0.8 0.3,-0.7 0.35,-0.75 0.3,-0.85 0.3,-0.8 0.35,-0.75 0.3,-0.85 0.35,-0.6 0.3,-0.85 0.35,-0.55 0.3,-0.8 0.3,-0.7 0.35,-0.4 0.3,-0.75 0.35,-0.75 0.3,-0.75 0.3,-0.8 0.35,-0.8 0.3,-1 0.35,-0.95 0.3,-0.95 0.3,-1 0.35,-1 0.3,-0.9 0.35,-0.7 0.3,-0.8 0.35,-0.6 0.3,-0.45 0.3,-0.7 0.35,-0.7 0.3,-0.65 0.35,-0.6"
         style="fill:none;stroke:#002d93;stroke-width:1.24;stroke-linecap:butt;stroke-linejoin:miter;stroke-miterlimit:4;stroke-opacity:1;stroke-dasharray:none"
         id="path7398"
         inkscape:connector-curvature="0" /><path
         d="m 126.05,156.55 0.3,-0.4 0.3,-0.4 0.35,-0.25 0.3,-0.4 0.35,-0.2 0.3,-0.25 0.35,-0.3 0.3,-0.3 0.3,-0.2 0.35,-0.3 0.3,-0.2 0.35,-0.35 0.3,-0.4 0.3,-0.45 0.35,-0.35 0.3,-0.45 0.35,-0.55 0.3,-0.55 0.35,-0.65 0.3,-0.45 0.3,-0.75 0.35,-0.45 0.3,-0.6 0.35,-0.45 0.3,-0.6 0.3,-0.55 0.35,-0.5 0.3,-0.65 0.35,-0.5 0.3,-0.8 0.3,-0.65 0.35,-1 0.3,-1.45 0.35,-1 0.3,-1.05 0.35,-0.95 0.3,-0.8 0.3,-0.85 0.35,-0.65 0.3,-0.7 0.35,-0.7 0.3,-0.7 0.3,-0.55 0.35,-0.55 0.3,-0.3 0.35,-0.7 0.3,-0.1 0.35,-0.35 0.3,-0.3 0.3,-0.05 0.35,-0.2 0.3,-0.1 0.35,-0.15 0.3,0 0.3,-0.15 0.35,-0.1 0.3,-0.1 0.35,-0.3 0.3,-0.15 0.35,-0.3 0.3,-0.1 0.3,-0.5 0.35,-0.35 0.3,-0.3 0.35,-0.45 0.3,-0.5 0.3,-0.4 0.35,-0.6 0.3,-0.55 0.35,-0.75 0.3,-0.45 0.35,-0.65 0.3,-0.65 0.3,-0.55 0.35,-0.35 0.3,-0.6 0.35,-0.45 0.3,-0.5 0.3,-0.4 0.35,-0.35 0.3,-0.45 0.35,-0.4 0.3,-0.4 0.3,-0.3 0.35,-0.2 0.3,-0.3 0.35,-0.2 0.3,0.15 0.35,-0.75 0.3,-0.15 0.3,-0.35 0.35,-0.35 0.3,-0.15 0.35,-0.6 0.3,-0.5 0.3,-0.45 0.35,-0.5 0.3,-0.5 0.35,-0.5 0.3,-0.35 0.35,-0.5 0.3,-0.45 0.3,-0.35 0.35,-0.4"
         style="fill:none;stroke:#002d93;stroke-width:1.24;stroke-linecap:butt;stroke-linejoin:miter;stroke-miterlimit:4;stroke-opacity:1;stroke-dasharray:none"
         id="path7400"
         inkscape:connector-curvature="0" /><path
         d="m 159.4,109.95 0.3,-0.35 0.35,-0.45 0.3,-0.3 0.3,-0.35 0.35,-0.35 0.3,-0.3 0.35,-0.35 0.3,-0.3 0.35,-0.15 0.3,-0.5 0.3,-0.15 0.35,-0.2 0.3,-0.25 0.35,-0.15 0.3,-0.3 0.3,-0.2 0.35,-0.1 0.3,-0.35 0.35,-0.25 0.3,-0.15 0.35,-0.25 0.3,-0.2 0.3,-0.3 0.35,-0.05 0.3,-0.2 0.35,-0.3 0.3,-0.05 0.3,-0.15 0.35,-0.05 0.3,-0.3 0.35,0.2 0.3,-0.05 0.3,0.15 0.35,0.1 0.3,0.1 0.35,0 0.3,-0.05 0.35,-0.05 0.3,-0.15 0.3,-0.2 0.35,-0.35 0.3,-0.1 0.35,-0.55 0.3,-0.2 0.3,-0.5 0.35,-0.35 0.3,-0.3 0.35,-0.2 0.3,0.1 0.35,-0.6 0.3,-0.35 0.3,0.05 0.35,-0.35 0.3,-0.05 0.35,-0.05 0.3,-0.2 0.3,0.1 0.35,-0.1 0.3,0.1 0.35,0 0.3,-0.05 0.35,0.1 0.3,-0.15 0.3,-0.15 0.35,-0.05 0.3,-0.3 0.35,-0.4 0.3,-0.2 0.3,-0.35 0.35,-0.35 0.3,-0.35 0.35,-0.3 0.3,-0.5 0.35,-0.25 0.3,-0.3 0.3,-0.35 0.35,-0.3 0.3,-0.3 0.35,-0.15 0.3,-0.2 0.3,-0.45 0.35,0.15 0.3,-0.15 0.35,-0.75 0.3,0.55 0.3,-0.1 0.35,-0.2 0.3,-0.2 0.35,-0.35 0.3,0.35 0.35,-0.15 0.3,-0.1 0.3,0 0.35,-0.05 0.3,-0.1 0.35,-0.1 0.3,-0.05 0.3,-0.1 0.35,-0.15 0.3,-0.15 0.35,-0.3 0.3,-0.15 0.35,-0.3 0.3,-0.3"
         style="fill:none;stroke:#002d93;stroke-width:1.24;stroke-linecap:butt;stroke-linejoin:miter;stroke-miterlimit:4;stroke-opacity:1;stroke-dasharray:none"
         id="path7402"
         inkscape:connector-curvature="0" /><path
         d="m 192.75,90.7 0.3,-0.15 0.35,-0.25 0.3,-0.25 0.35,-0.3 0.3,-0.25 0.3,-0.05 0.35,-0.4 0.3,-0.2 0.35,-0.25 0.3,-0.35 0.35,-0.05 0.3,-0.3 0.3,-0.3 0.35,-0.1 0.3,-0.3 0.35,-0.1 0.3,-0.25 0.3,-0.25 0.35,-0.05 0.3,-0.05 0.35,0 0.3,-0.05 0.3,0.1 0.35,0.3 0.3,-0.45 0.35,0.15 0.3,-0.2 0.35,-0.25 0.3,-0.25 0.3,-0.35 0.35,0.25 0.3,-0.2 0.35,0 0.3,-0.65 0.3,0.05 0.35,-0.2 0.3,0 0.35,0.05 0.3,-0.1 0.35,-0.05 0.3,-0.15 0.3,0.35 0.35,0.05 0.3,0.15 0.35,-0.2 0.3,0.15 0.65,0 0.3,-0.3 0.35,0.35 0.3,0.05 0.35,0.05 0.3,0 0.3,-0.05 0.35,-0.25 0.3,-0.05 0.35,-0.35 0.3,0 0.3,-0.15 0.35,0 0.3,-0.35 0.35,0.1 0.3,-0.1 0.35,-0.05 0.3,-0.1 0.3,-0.25 0.35,-0.2 0.3,0.2 0.35,0.45 0.3,0 0.3,0.45 0.35,0.25 0.3,0.6 0.35,0.4 0.3,0.3 0.3,0.3 0.35,-0.15 0.3,-0.25 0.35,0 0.3,-0.05 0.35,-0.25 0.3,-0.5 0.3,-0.75 0.35,-0.3 0.3,-0.55 0.35,-0.35 0.3,-0.35 0.3,-0.55 0.35,-0.3 0.3,-0.2 0.35,-0.45 0.3,0.15 0.35,-0.35 0.3,-0.45 0.3,0.25 0.35,-0.35 0.3,0.15 0.35,0.55 0.3,-0.6 0.3,0 0.35,0.4 0.3,0.7 0.35,-0.9 0.3,0.55"
         style="fill:none;stroke:#002d93;stroke-width:1.24;stroke-linecap:butt;stroke-linejoin:miter;stroke-miterlimit:4;stroke-opacity:1;stroke-dasharray:none"
         id="path7404"
         inkscape:connector-curvature="0" /><path
         d="m 226.1,81.4 0.35,-0.3 0.3,1.25 0.3,-0.9 0.35,0.25 0.3,-0.45 0.35,0.5 0.3,0.3 0.3,0.25 0.35,0.3 0.3,-0.1 0.35,0.9 0.3,-0.35 0.35,0.4 0.3,0.1 0.3,0.15 0.35,-0.15 0.3,0.05 0.35,0.2 0.3,-0.75 0.3,-0.8 0.35,0.55 0.3,-0.4 0.35,-0.35 0.3,-0.1 0.3,-0.35 0.35,0.25 0.3,-0.85 0.35,-0.25 0.3,-0.35 0.35,0.55 0.3,-0.5 0.3,-0.25 0.35,0.5 0.3,-0.6 0.35,-0.25 0.3,0.1 0.3,0.35 0.35,0 0.3,0.3 0.35,-0.45 0.3,0.45 0.35,0.35 0.3,-0.2 0.3,0.45 0.35,-0.15 0.3,-0.35 0.35,0 0.3,-0.35 0.3,-0.3 0.35,-0.3 0.3,0.25 0.35,-0.6 0.3,-0.05 0.35,-0.75 0.3,0.3 0.3,-0.8 0.35,0.05 0.3,-0.7 0.35,-0.35 0.3,0.3 0.3,-0.2 0.35,-0.55 0.3,0 0.35,-0.55 0.3,-0.3 0.35,0.05 0.3,0.05 0.3,-0.45 0.35,-0.45 0.3,0.1 0.35,0.05 0.3,0.05 0.3,-0.5 0.35,0 0.3,0.05 0.35,0.05 0.3,-0.2 0.3,0.05 0.35,0.4 0.3,0.45 0.35,0.5 0.3,0.3 0.35,0.1 0.3,0.8 0.3,-0.25 0.35,-0.15 0.3,0.25 0.35,-0.4 0.3,-0.2 0.3,-0.05 0.35,-0.75 0.3,-0.45 0.35,-0.85 0.3,-0.8 0.35,0.15 0.3,-0.3 0.3,-0.8 0.35,-0.8 0.3,0.65 0.35,-0.9 0.3,-0.05 0.3,-0.65 0.35,0.3 0.3,-0.1"
         style="fill:none;stroke:#002d93;stroke-width:1.24;stroke-linecap:butt;stroke-linejoin:miter;stroke-miterlimit:4;stroke-opacity:1;stroke-dasharray:none"
         id="path7406"
         inkscape:connector-curvature="0" /><path
         d="m 259.45,71.05 0.35,0.25 0.3,0.35 0.35,-1.3 0.3,0.45 0.3,-0.15 0.35,0.6 0.3,-0.75 0.35,0.55 0.3,0.25 0.3,-0.5 0.35,0 0.3,0.5 0.35,0.65 0.3,-0.4 0.3,1 0.35,0.8 0.3,-0.7 0.35,0.85 0.3,-0.4 0.35,-0.7 0.3,0.75 0.3,-0.4 0.35,0.25 0.3,-0.7 0.35,0.8 0.3,-0.45 0.3,-0.15 0.35,-0.4 0.3,-0.2 0.35,-0.15 0.3,0.95 0.35,-1.35 0.3,-0.3 0.3,-0.75 0.35,0.25 0.3,0 0.35,-0.35 0.3,-0.85 0.3,-0.5 0.35,-0.5 0.3,0.5 0.35,0.05 0.3,-0.5 0.35,0.1 0.3,-0.05 0.3,0.05 0.35,-0.7 0.3,-0.35 0.35,1.05 0.3,-0.7 0.3,-0.9 0.35,0.25 0.3,0.8 0.35,-0.9 0.3,2.1 0.35,-2.25 0.3,1 0.3,1.45 0.35,0.05 0.3,0.35 0.35,0.65 0.3,-0.55 0.3,0.7 0.35,0.75 0.3,0.5 0.35,-0.1 0.3,-0.85 0.3,0.3 0.35,0.45 0.3,-0.35 0.35,-0.8 0.3,-1.15 0.35,-0.5 0.3,0.6 0.3,-0.8 0.35,-0.95 0.3,0.25 0.35,-1.4 0.3,0.3 0.3,0 0.35,-0.85 0.3,-0.35 0.35,-0.2 0.3,-0.2 0.35,-0.2 0.3,-0.7 0.3,0.85 0.35,-1.4 0.3,0.95 0.35,-0.55 0.3,0.55 0.3,-0.1 0.35,0.75 0.3,0.35 0.35,1.85 0.3,0.55 0.35,2.1 0.3,-0.8 0.3,1.4 0.35,-0.1 0.3,1.7 0.35,-0.3 0.3,1.35 0.3,-0.3"
         style="fill:none;stroke:#002d93;stroke-width:1.24;stroke-linecap:butt;stroke-linejoin:miter;stroke-miterlimit:4;stroke-opacity:1;stroke-dasharray:none"
         id="path7408"
         inkscape:connector-curvature="0" /><path
         d="m 292.8,73.15 0.35,0.9 0.3,-0.45 0.35,1.65 0.3,-1.8 0.35,-0.45 0.3,-0.65 0.3,1.85 0.35,-2.3 0.3,-0.65 0.35,-0.1 0.3,-1.15 0.3,-1.1 0.35,-1.05 0.3,0.2 0.35,-1.35 0.3,1.5 0.3,-0.85 0.35,-0.1 0.3,-0.75 0.35,0.6 0.3,-1.45 0.35,0.5 0.3,-0.6 0.3,0.85 0.35,-0.85 0.3,0.95 0.35,-1.35 0.3,0.9 0.3,-0.75 0.35,0.25 0.3,-0.4 0.35,0.25 0.3,-0.75 0.35,0.55 0.3,-0.4 0.3,0.8 0.35,-0.95 0.3,-0.65 0.35,0.3 0.3,1.05 0.3,-0.05 0.35,-0.65 0.3,0.45 0.35,-0.3 0.3,-1.75 0.35,0.7 0.3,0.7 0.3,-1.05 0.35,-1.45 0.3,1.7 0.35,-2.7 0.3,1.45 0.3,-1.25 0.35,-0.55 0.3,-0.75 0.35,0.25 0.3,-0.4 0.35,1.2 0.3,-1.05 0.3,-0.55 0.35,0.3 0.3,-0.6 0.35,0.7 0.3,-0.15 0.3,-0.8 0.35,0.5 0.3,0.75 0.35,0.55 0.3,0.5 0.3,-0.6 0.35,1.2 0.3,-0.3 0.35,0 0.3,1.5 0.35,-0.65 0.3,-0.15 0.3,1.75 0.35,-1.3 0.3,0.3 0.35,0.75 0.3,-1.35 0.3,-0.4 0.35,-0.75 0.3,1.4 0.35,-2.15 0.3,0.2 0.35,0.35 0.3,-0.85 0.3,-0.2 0.35,-0.75 0.3,-0.05 0.35,-0.2 0.3,-1.65 0.3,1.45 0.35,-0.15 0.3,-0.5 0.35,0.5 0.3,-1.45 0.35,1.7 0.3,-1 0.3,0.55 0.35,-0.25 0.3,-0.5 0.35,1.2"
         style="fill:none;stroke:#002d93;stroke-width:1.24;stroke-linecap:butt;stroke-linejoin:miter;stroke-miterlimit:4;stroke-opacity:1;stroke-dasharray:none"
         id="path7410"
         inkscape:connector-curvature="0" /><path
         d="m 326.2,58.7 0.3,-1.3 0.3,1.35 0.35,-2.4 0.3,0.8 0.35,-0.4 0.3,0.7 0.3,-1.95 0.35,1.15 0.3,0.55 0.35,-2 0.3,1.5 0.35,-0.75 0.3,-0.55 0.3,0.7 0.35,0.35 0.3,0.05 0.35,0.15 0.3,0.5 0.3,0.3 0.35,1.15 0.3,0.05 0.35,0.4 0.3,0.7 0.35,-0.1 0.3,0.2 0.3,0.15 0.35,-0.55 0.3,-0.2 0.35,-0.2 0.3,0.45 0.3,0.35 0.35,-0.45 0.3,0.25 0.35,0.35 0.3,-0.8 0.35,-0.25 0.3,0.25 0.3,-0.25 0.35,-0.1 0.3,0.45 0.35,0.3 0.3,-0.75 0.3,-0.05 0.35,-0.7 0.3,0.65"
         style="fill:none;stroke:#002d93;stroke-width:1.24;stroke-linecap:butt;stroke-linejoin:miter;stroke-miterlimit:4;stroke-opacity:1;stroke-dasharray:none"
         id="path7412"
         inkscape:connector-curvature="0" /></g><g
       id="g8063"
       style="stroke:#ff31a3;stroke-opacity:1;stroke-width:1.24;stroke-miterlimit:4;stroke-dasharray:4.96,4.96;stroke-dashoffset:0"><path
         d="m 300.75,199.35 29.55,0 m -237,-50.25 0.35,1.7 0.3,1.6 0.35,1.45 0.3,1.55 0.3,1.3 0.35,1.5 0.3,1.2 0.35,1.35 0.3,1.25 0.3,1.2 0.35,1.05 0.3,1.1 0.35,0.95 0.3,1.05 0.35,1 0.3,1.05 0.3,1 0.35,1 0.3,1.1 0.35,1.1 0.3,1.3 0.3,1.15 0.35,1.3 0.3,1.3 0.35,1.25 0.3,1.25 0.35,1.2 0.3,1.25 0.3,1.15 0.35,1.05 0.3,1 0.35,1.4 0.3,1 0.3,1.35 0.35,1.8 0.3,1.25 0.35,1 0.3,0.75 0.3,0.2 0.35,0.25 0.3,-0.25 0.35,-0.35 0.3,-0.65 0.35,-0.75 0.3,-0.9 0.3,-1.2 0.35,-1.35 0.3,-0.85 0.35,-1.4 0.3,-1.25 0.3,-1 0.35,-0.9 0.3,-0.95 0.35,-0.9 0.3,-0.8 0.35,-1.05 0.3,-0.75 0.3,-0.95 0.35,-0.9 0.3,-0.8 0.35,-0.7 0.3,-0.9 0.3,-1 0.35,-0.3 0.3,-0.75 0.35,-0.8 0.3,-0.7 0.35,-0.7 0.3,-0.8 0.3,-0.6 0.35,-0.85 0.3,-0.7 0.35,-0.75 0.3,-0.85 0.3,-0.75 0.35,-0.8 0.3,-0.85 0.35,-0.65 0.3,-0.9 0.35,-0.65 0.3,-0.85 0.3,-0.75 0.35,-0.5 0.3,-0.9 0.35,-0.8 0.3,-0.8 0.3,-0.95 0.35,-0.9 0.3,-1.1 0.35,-1.05 0.3,-1.05 0.3,-1.05 0.35,-1.05 0.3,-1 0.35,-0.75 0.3,-0.9 0.35,-0.6 0.3,-0.5 0.3,-0.65 0.35,-0.7 0.3,-0.5 0.35,-0.55"
         style="fill:none;stroke:#ff31a3;stroke-width:1.24;stroke-linecap:butt;stroke-linejoin:miter;stroke-miterlimit:4;stroke-opacity:1;stroke-dasharray:4.96,4.96;stroke-dashoffset:0"
         id="path7414"
         inkscape:connector-curvature="0" /><path
         d="m 126.05,144.95 0.3,-0.25 0.3,-0.3 0.35,-0.15 0.3,-0.2 0.35,-0.1 0.3,-0.1 0.35,-0.2 0.3,-0.2 0.3,-0.15 0.35,-0.25 0.3,-0.2 0.35,-0.4 0.3,-0.45 0.3,-0.55 0.35,-0.35 0.3,-0.45 0.35,-0.6 0.3,-0.55 0.35,-0.65 0.3,-0.45 0.3,-0.75 0.35,-0.5 0.3,-0.6 0.35,-0.45 0.3,-0.6 0.3,-0.5 0.35,-0.5 0.3,-0.6 0.35,-0.45 0.3,-0.75 0.3,-0.7 0.35,-0.95 0.3,-1.35 0.35,-1.15 0.3,-1 0.35,-1.05 0.3,-0.85 0.3,-0.85 0.35,-0.7 0.3,-0.7 0.35,-0.75 0.3,-0.65 0.3,-0.65 0.35,-0.6 0.3,-0.45 0.35,-0.65 0.3,-0.3 0.35,-0.35 0.3,-0.25 0.3,0.05 0.35,-0.05 0.3,0 0.35,-0.05 0.3,0.15 0.3,-0.1 0.65,0 0.35,-0.05 0.3,-0.05 0.35,-0.2 0.3,0.05 0.3,-0.4 0.35,-0.25 0.3,-0.2 0.35,-0.4 0.3,-0.45 0.3,-0.4 0.35,-0.6 0.3,-0.5 0.35,-0.7 0.3,-0.5 0.35,-0.6 0.3,-0.7 0.3,-0.55 0.35,-0.35 0.3,-0.55 0.35,-0.4 0.3,-0.45 0.3,-0.35 0.35,-0.25 0.3,-0.35 0.35,-0.35 0.3,-0.3 0.3,-0.25 0.35,-0.1 0.3,-0.2 0.35,-0.1 0.3,0 0.35,-0.4 0.3,-0.15 0.3,-0.3 0.35,-0.4 0.3,-0.35 0.35,-0.4 0.3,-0.55 0.3,-0.5 0.35,-0.6 0.3,-0.55 0.35,-0.55 0.3,-0.4 0.35,-0.55 0.3,-0.45 0.3,-0.4 0.35,-0.4"
         style="fill:none;stroke:#ff31a3;stroke-width:1.24;stroke-linecap:butt;stroke-linejoin:miter;stroke-miterlimit:4;stroke-opacity:1;stroke-dasharray:4.96,4.96;stroke-dashoffset:0"
         id="path7416"
         inkscape:connector-curvature="0" /><path
         d="m 159.4,101.3 0.3,-0.35 0.35,-0.4 0.3,-0.35 0.3,-0.3 0.35,-0.35 0.3,-0.3 0.35,-0.3 0.3,-0.2 0.35,-0.25 0.3,-0.3 0.3,-0.1 0.35,-0.25 0.3,-0.15 0.35,-0.2 0.3,-0.25 0.3,-0.15 0.35,-0.2 0.3,-0.3 0.35,-0.2 0.3,-0.2 0.35,-0.2 0.3,-0.2 0.3,-0.35 0.35,0 0.3,-0.2 0.35,-0.3 0.3,0 0.3,-0.25 0.35,0.05 0.3,-0.2 0.35,0.15 0.3,0 0.3,0.1 0.35,0.15 0.3,0.1 0.35,0.05 0.3,-0.1 0.35,-0.05 0.3,-0.1 0.3,-0.25 0.35,-0.4 0.3,-0.1 0.35,-0.55 0.3,-0.2 0.3,-0.5 0.35,-0.4 0.3,-0.3 0.35,-0.25 0.3,0.1 0.35,-0.6 0.3,-0.35 0.3,0 0.35,-0.35 0.3,-0.15 0.35,0 0.3,-0.25 0.3,0.05 0.35,-0.1 0.3,0.1 0.35,-0.05 0.3,-0.05 0.35,0.1 0.3,-0.2 0.3,-0.2 0.35,-0.05 0.3,-0.35 0.35,-0.35 0.3,-0.25 0.3,-0.35 0.35,-0.35 0.3,-0.35 0.35,-0.3 0.3,-0.55 0.35,-0.15 0.3,-0.35 0.3,-0.3 0.35,-0.3 0.3,-0.3 0.35,-0.1 0.3,-0.15 0.3,-0.5 0.35,0.2 0.3,-0.2 0.35,-0.4 0.3,0.25 0.3,-0.05 0.35,-0.2 0.3,-0.15 0.35,-0.05 0.3,0.1 0.35,-0.1 0.3,0 0.3,0.05 0.35,0 0.3,-0.1 0.35,-0.05 0.3,0.05 0.3,-0.1 0.35,-0.15 0.3,-0.15 0.35,-0.35 0.3,-0.05 0.35,-0.35 0.3,-0.25"
         style="fill:none;stroke:#ff31a3;stroke-width:1.24;stroke-linecap:butt;stroke-linejoin:miter;stroke-miterlimit:4;stroke-opacity:1;stroke-dasharray:4.96,4.96;stroke-dashoffset:0"
         id="path7418"
         inkscape:connector-curvature="0" /><path
         d="m 192.75,82.85 0.3,-0.2 0.35,-0.2 0.3,-0.25 0.35,-0.2 0.3,-0.15 0.3,-0.15 0.35,-0.35 0.3,-0.15 0.35,-0.15 0.3,-0.35 0.35,0.05 0.3,-0.35 0.3,-0.2 0.35,-0.1 0.3,-0.3 0.35,0.1 0.3,-0.35 0.3,-0.2 0.35,0.05 0.3,-0.15 0.35,0.05 0.6,0 0.35,0.4 0.3,-0.4 0.35,0.15 0.3,-0.15 0.35,-0.25 0.3,-0.15 0.3,-0.4 0.35,0.4 0.3,-0.2 0.35,0.05 0.3,-0.5 0.3,0.05 0.35,-0.15 0.3,0.05 0.35,0.05 0.3,-0.05 0.35,-0.05 0.3,-0.15 0.3,0.35 0.35,0 0.3,0.15 0.35,-0.2 0.3,0.1 0.3,-0.05 0.35,0 0.3,-0.3 0.35,0.3 0.3,0.05 0.35,0.05 0.3,0 0.3,-0.05 0.35,-0.25 0.3,-0.05 0.35,-0.3 0.3,-0.05 0.3,-0.2 0.35,0 0.3,-0.4 0.35,0.1 0.3,-0.15 0.35,-0.15 0.3,-0.05 0.3,-0.25 0.35,-0.2 0.3,0.15 0.35,0.5 0.3,0.05 0.3,0.45 0.35,0.3 0.3,0.65 0.35,0.5 0.3,0.4 0.3,0.35 0.35,-0.15 0.3,-0.2 0.35,0.05 0.3,-0.1 0.35,-0.25 0.3,-0.6 0.3,-0.75 0.35,-0.35 0.3,-0.6 0.35,-0.4 0.3,-0.35 0.3,-0.65 0.35,-0.3 0.3,-0.2 0.35,-0.4 0.3,0.15 0.35,-0.35 0.3,-0.45 0.3,0.3 0.35,-0.35 0.3,0.2 0.35,0.5 0.3,-0.5 0.3,-0.05 0.35,0.4 0.3,0.65 0.35,-0.85 0.3,0.5"
         style="fill:none;stroke:#ff31a3;stroke-width:1.24;stroke-linecap:butt;stroke-linejoin:miter;stroke-miterlimit:4;stroke-opacity:1;stroke-dasharray:4.96,4.96;stroke-dashoffset:0"
         id="path7420"
         inkscape:connector-curvature="0" /><path
         d="m 226.1,74.7 0.35,-0.35 0.3,1.1 0.3,-0.85 0.35,0.25 0.3,-0.55 0.35,0.5 0.3,0.25 0.3,0.3 0.35,0.3 0.3,-0.1 0.35,0.95 0.3,-0.35 0.35,0.5 0.3,0.1 0.3,0.2 0.35,-0.1 0.3,0.1 0.35,0.15 0.3,-0.75 0.3,-0.8 0.35,0.55 0.3,-0.45 0.35,-0.35 0.3,-0.05 0.3,-0.3 0.35,0.35 0.3,-0.9 0.35,-0.25 0.3,-0.35 0.35,0.5 0.3,-0.5 0.3,-0.15 0.35,0.45 0.3,-0.55 0.35,-0.15 0.3,0.1 0.3,0.45 0.35,0 0.3,0.35 0.35,-0.3 0.3,0.55 0.35,0.3 0.3,-0.05 0.3,0.4 0.35,-0.05 0.3,-0.3 0.35,0 0.3,-0.25 0.3,-0.25 0.35,-0.3 0.3,0.2 0.35,-0.6 0.3,0.05 0.35,-0.75 0.3,0.35 0.3,-0.75 0.35,0.1 0.3,-0.6 0.35,-0.3 0.3,0.3 0.3,-0.2 0.35,-0.35 0.3,-0.05 0.35,-0.5 0.3,-0.3 0.35,0.1 0.3,-0.2 0.3,-0.2 0.35,-0.35 0.3,0.05 0.35,0.1 0.3,-0.1 0.3,-0.3 0.35,-0.15 0.3,0.05 0.35,0.05 0.3,-0.15 0.3,0.15 0.35,0.5 0.3,0.5 0.35,0.55 0.3,0.35 0.35,0.2 0.3,1 0.3,-0.2 0.35,-0.05 0.3,0.2 0.35,-0.3 0.3,-0.2 0.3,-0.2 0.35,-0.7 0.3,-0.55 0.35,-0.95 0.3,-0.8 0.35,0.15 0.3,-0.4 0.3,-0.75 0.35,-0.75 0.3,0.55 0.35,-0.8 0.3,-0.05 0.3,-0.5 0.35,0.2 0.3,-0.1"
         style="fill:none;stroke:#ff31a3;stroke-width:1.24;stroke-linecap:butt;stroke-linejoin:miter;stroke-miterlimit:4;stroke-opacity:1;stroke-dasharray:4.96,4.96;stroke-dashoffset:0"
         id="path7422"
         inkscape:connector-curvature="0" /><path
         d="m 259.45,66.6 0.35,0.3 0.3,0.35 0.35,-1.25 0.3,0.45 0.3,-0.05 0.35,0.55 0.3,-0.6 0.35,0.45 0.3,0.2 0.3,-0.25 0.35,0.05 0.3,0.55 0.35,0.7 0.3,-0.25 0.3,1.05 0.35,0.65 0.3,-0.5 0.35,0.85 0.3,-0.35 0.35,-0.7 0.3,0.7 0.3,-0.4 0.35,0.2 0.3,-0.65 0.35,0.7 0.3,-0.4 0.3,-0.15 0.35,-0.35 0.3,-0.15 0.35,-0.2 0.3,0.8 0.35,-1.2 0.3,-0.3 0.3,-0.7 0.35,0.2 0.3,0 0.35,-0.3 0.3,-0.8 0.3,-0.4 0.35,-0.45 0.3,0.45 0.35,0.1 0.3,-0.45 0.35,0.15 0.3,0 0.3,0.1 0.35,-0.65 0.3,-0.3 0.35,0.95 0.3,-0.7 0.3,-0.8 0.35,0.3 0.3,0.8 0.35,-0.85 0.3,2.05 0.35,-2.05 0.3,1.1 0.3,1.35 0.35,0.15 0.3,0.4 0.35,0.75 0.3,-0.45 0.3,0.85 0.35,0.6 0.3,0.5 0.35,0 0.3,-0.8 0.3,0.35 0.35,0.35 0.3,-0.35 0.35,-0.8 0.3,-1.15 0.35,-0.5 0.3,0.4 0.3,-0.8 0.35,-1 0.3,0.1 0.35,-1.4 0.3,0.2 0.3,-0.2 0.35,-0.8 0.3,-0.45 0.35,-0.25 0.3,-0.2 0.35,-0.3 0.3,-0.65 0.3,0.85 0.35,-1.25 0.3,0.9 0.35,-0.3 0.3,0.5 0.3,0.1 0.35,0.85 0.3,0.5 0.35,1.95 0.3,0.6 0.35,2.15 0.3,-0.5 0.3,1.35 0.35,0.05 0.3,1.7 0.35,-0.2 0.3,1.35 0.3,-0.15"
         style="fill:none;stroke:#ff31a3;stroke-width:1.24;stroke-linecap:butt;stroke-linejoin:miter;stroke-miterlimit:4;stroke-opacity:1;stroke-dasharray:4.96,4.96;stroke-dashoffset:0"
         id="path7424"
         inkscape:connector-curvature="0" /><path
         d="m 292.8,71.5 0.35,0.85 0.3,-0.4 0.35,1.5 0.3,-1.65 0.35,-0.45 0.3,-0.9 0.3,1.75 0.35,-2.3 0.3,-0.7 0.35,-0.2 0.3,-1.2 0.3,-0.9 0.35,-1.25 0.3,0.1 0.35,-1.35 0.3,1.45 0.3,-0.85 0.35,-0.15 0.3,-0.7 0.35,0.5 0.3,-1.35 0.35,0.45 0.3,-0.55 0.3,0.8 0.35,-0.85 0.3,0.9 0.35,-1.35 0.3,0.8 0.3,-0.75 0.35,0.25 0.3,-0.45 0.35,0.15 0.3,-0.75 0.35,0.5 0.3,-0.45 0.3,0.75 0.35,-0.9 0.3,-0.7 0.35,0.3 0.3,0.95 0.3,-0.05 0.35,-0.6 0.3,0.4 0.35,-0.3 0.3,-1.7 0.35,0.65 0.3,0.6 0.3,-1 0.35,-1.5 0.3,1.65 0.35,-2.7 0.3,1.35 0.3,-1.35 0.35,-0.45 0.3,-0.7 0.35,0.2 0.3,-0.45 0.35,1.2 0.3,-1 0.3,-0.5 0.35,0.35 0.3,-0.6 0.35,0.7 0.3,-0.1 0.3,-0.7 0.35,0.45 0.3,0.8 0.35,0.6 0.3,0.5 0.3,-0.45 0.35,1.3 0.3,-0.15 0.35,0.1 0.3,1.55 0.35,-0.55 0.3,-0.15 0.3,1.7 0.35,-1.15 0.3,0.25 0.35,0.65 0.3,-1.3 0.3,-0.45 0.35,-0.75 0.3,1.2 0.35,-2.05 0.3,0.05 0.35,0.25 0.3,-1 0.3,-0.35 0.35,-0.75 0.3,-0.25 0.35,-0.3 0.3,-1.55 0.3,1.25 0.35,-0.15 0.3,-0.45 0.35,0.45 0.3,-1.35 0.35,1.6 0.3,-0.9 0.3,0.45 0.35,-0.15 0.3,-0.45 0.35,1.2"
         style="fill:none;stroke:#ff31a3;stroke-width:1.24;stroke-linecap:butt;stroke-linejoin:miter;stroke-miterlimit:4;stroke-opacity:1;stroke-dasharray:4.96,4.96;stroke-dashoffset:0"
         id="path7426"
         inkscape:connector-curvature="0" /><path
         d="m 326.2,55.5 0.3,-1.2 0.3,1.2 0.35,-2 0.3,0.5 0.35,-0.3 0.3,0.5 0.3,-1.8 0.35,0.85 0.3,0.6 0.35,-1.9 0.3,1.4 0.35,-0.7 0.3,-0.5 0.3,0.65 0.35,0.35 0.3,0.1 0.35,0.2 0.3,0.75 0.3,0.25 0.35,0.95 0.3,0.25 0.35,0.4 0.3,0.8 0.35,0.05 0.3,0.2 0.3,0.2 0.35,-0.4 0.3,-0.1 0.35,-0.35 0.3,0.6 0.3,0.25 0.35,-0.4 0.3,0.25 0.35,0.3 0.3,-0.75 0.35,-0.1 0.3,0.1 0.3,-0.3 0.35,-0.1 0.3,0.4 0.35,-0.05 0.3,-0.7 0.3,0 0.35,-0.85 0.3,0.65"
         style="fill:none;stroke:#ff31a3;stroke-width:1.24;stroke-linecap:butt;stroke-linejoin:miter;stroke-miterlimit:4;stroke-opacity:1;stroke-dasharray:4.96,4.96;stroke-dashoffset:0"
         id="path7428"
         inkscape:connector-curvature="0" /></g><g
       id="g8073"><path
         d="m 300.75,188.35 29.55,0 m -237,-46.8 0.35,-2.5 0.3,1.4 0.35,1.25 0.3,1.35 0.3,1.05 0.35,1.3 0.3,1 0.35,1.1 0.3,1.05 0.3,0.95 0.35,0.8 0.3,0.85 0.35,0.65 0.3,0.8 0.35,0.7 0.3,0.75 0.3,0.7 0.35,0.7 0.3,0.8 0.35,0.75 0.3,0.95 0.3,0.8 0.35,0.9 0.3,0.95 0.35,0.9 0.3,0.9 0.35,0.85 0.3,0.9 0.3,0.75 0.35,0.7 0.3,0.65 0.35,1.15 0.3,0.65 0.3,1.15 0.35,1.6 0.3,1.05 0.35,0.8 0.3,0.65 0.3,0 0.35,0.15 0.3,-0.45 0.35,-0.4 0.3,-0.75 0.35,-0.8 0.3,-0.95 0.3,-1.3 0.35,-1.5 0.3,-0.85 0.35,-1.65 0.3,-1.4 0.3,-1.1 0.35,-1 0.3,-1.15 0.35,-1 0.3,-0.9 0.35,-1.2 0.3,-0.9 0.3,-1 0.35,-1 0.3,-0.8 0.35,-0.8 0.3,-0.9 0.3,-1.05 0.35,-0.2 0.3,-0.7 0.35,-0.85 0.3,-0.8 0.35,-0.8 0.3,-0.95 0.3,-0.65 0.35,-1 0.3,-0.85 0.35,-0.9 0.3,-1 0.3,-0.9 0.35,-0.9 0.3,-1 0.35,-0.8 0.3,-1.15 0.35,-0.75 0.3,-1.05 0.3,-0.85 0.35,-0.6 0.3,-1.15 0.35,-0.9 0.3,-0.9 0.3,-1.05 0.35,-0.95 0.3,-1.2 0.35,-1.15 0.3,-1.1 0.3,-1.15 0.35,-1.15 0.3,-1.05 0.35,-0.9 0.3,-0.9 0.35,-0.65 0.3,-0.5 0.3,-0.8 0.35,-0.75 0.3,-0.6 0.35,-0.65"
         style="fill:none;stroke:#659500;stroke-width:1.24;stroke-linecap:butt;stroke-linejoin:miter;stroke-miterlimit:10;stroke-opacity:1;stroke-dasharray:1.24,1.24;stroke-dashoffset:0"
         id="path7430"
         inkscape:connector-curvature="0" /><path
         d="m 126.05,116.4 0.3,-0.3 0.3,-0.45 0.35,-0.15 0.3,-0.35 0.35,-0.25 0.3,-0.15 0.35,-0.35 0.3,-0.25 0.3,-0.25 0.35,-0.3 0.3,-0.2 0.35,-0.35 0.3,-0.45 0.3,-0.5 0.35,-0.3 0.3,-0.3 0.35,-0.55 0.3,-0.45 0.35,-0.65 0.3,-0.3 0.3,-0.75 0.35,-0.45 0.3,-0.55 0.35,-0.4 0.3,-0.55 0.3,-0.45 0.35,-0.5 0.3,-0.65 0.35,-0.5 0.3,-0.9 0.3,-0.85 0.35,-1.2 0.3,-1.9 0.35,-1.45 0.3,-1.3 0.35,-1.35 0.3,-1.1 0.3,-1 0.35,-0.95 0.3,-0.8 0.35,-0.95 0.3,-0.75 0.3,-0.7 0.35,-0.65 0.3,-0.45 0.35,-0.65 0.3,-0.2 0.35,-0.15 0.3,-0.3 0.3,0.15 0.35,0.05 0.3,0.2 0.35,0.1 0.3,0.15 0.3,-0.05 0.35,0.15 0.95,0 0.35,-0.15 0.3,0.15 0.3,-0.45 0.35,-0.2 0.3,-0.05 0.35,-0.35 0.3,-0.35 0.3,-0.35 0.35,-0.55 0.3,-0.4 0.35,-0.6 0.3,-0.45 0.35,-0.5 0.3,-0.6 0.3,-0.45 0.35,-0.3 0.3,-0.45 0.35,-0.3 0.3,-0.45 0.3,-0.25 0.35,-0.3 0.3,-0.4 0.35,-0.3 0.3,-0.35 0.3,-0.15 0.35,-0.35 0.3,-0.15 0.35,-0.15 0.3,-0.15 0.35,-0.35 0.3,-0.25 0.3,-0.35 0.35,-0.4 0.3,-0.25 0.35,-0.6 0.3,-0.65 0.3,-0.6 0.35,-0.7 0.3,-0.6 0.35,-0.55 0.3,-0.45 0.35,-0.5 0.3,-0.3 0.3,-0.35 0.35,-0.15"
         style="fill:none;stroke:#659500;stroke-width:1.24;stroke-linecap:butt;stroke-linejoin:miter;stroke-miterlimit:10;stroke-opacity:1;stroke-dasharray:1.24,1.24;stroke-dashoffset:0"
         id="path7432"
         inkscape:connector-curvature="0" /><path
         d="m 159.4,71.5 0.3,-0.25 0.35,-0.2 0.3,-0.15 0.3,-0.15 0.35,-0.25 0.3,-0.05 0.35,-0.3 0.3,-0.15 0.35,-0.1 0.3,-0.25 0.3,-0.2 0.35,-0.15 0.3,-0.1 0.35,-0.1 0.3,-0.15 0.3,-0.05 0.35,0 0.3,-0.2 0.35,-0.05 0.3,-0.05 0.35,0.05 0.3,0.05 0.3,0 0.35,0.3 0.3,0.2 0.35,0.05 0.3,0.4 0.3,0.1 0.35,0.35 0.3,0.1 0.35,0.5 0.3,0.3 0.3,0.35 0.35,0.3 0.3,0.25 0.35,0.1 0.3,-0.1 0.35,-0.15 0.3,-0.25 0.3,-0.4 0.35,-0.5 0.3,-0.3 0.35,-0.6 0.3,-0.35 0.3,-0.55 0.35,-0.25 0.3,-0.25 0.35,-0.15 0.3,0.25 0.35,-0.45 0.3,-0.35 0.3,0.05 0.35,-0.35 0.3,0 0.35,0.05 0.3,-0.25 0.3,0.15 0.35,0 0.3,0.2 0.35,0.05 0.3,0.1 0.35,0.1 0.3,0 0.3,-0.2 0.35,0 0.3,-0.35 0.35,-0.35 0.3,-0.25 0.3,-0.4 0.35,-0.25 0.3,-0.3 0.35,-0.15 0.3,-0.5 0.35,-0.05 0.3,-0.1 0.3,-0.2 0.35,-0.15 0.3,-0.1 0.35,0.15 0.3,0.1 0.3,-0.25 0.35,0.6 0.3,0.1 0.35,-0.1 0.3,0.4 0.3,0.25 0.35,-0.05 0.3,-0.1 0.35,-0.05 0.3,0.35 0.35,-0.05 0.3,0.05 0.3,0.05 0.35,0 0.3,-0.1 0.35,-0.05 0.3,0.05 0.3,-0.1 0.35,-0.2 0.3,-0.05 0.35,-0.35 0.3,-0.05 0.35,-0.35 0.3,-0.3"
         style="fill:none;stroke:#659500;stroke-width:1.24;stroke-linecap:butt;stroke-linejoin:miter;stroke-miterlimit:10;stroke-opacity:1;stroke-dasharray:1.24,1.24;stroke-dashoffset:0"
         id="path7434"
         inkscape:connector-curvature="0" /><path
         d="m 192.75,64.3 0.3,-0.15 0.35,-0.25 0.3,-0.2 0.35,-0.25 0.3,-0.05 0.3,-0.15 0.35,-0.15 0.3,-0.1 0.35,-0.1 0.3,-0.2 0.35,0.15 0.3,-0.15 0.3,-0.05 0.35,0.05 0.3,-0.25 0.35,0.2 0.3,-0.3 0.3,-0.15 0.35,0 0.3,-0.05 0.35,0.05 0.3,-0.05 0.3,0.1 0.35,0.5 0.3,-0.6 0.35,0.25 0.3,-0.15 0.35,-0.2 0.3,-0.2 0.3,-0.25 0.35,0.35 0.3,0.2 0.35,0.25 0.3,-0.45 0.3,0.4 0.35,0.05 0.3,0.25 0.35,0.35 0.3,0.1 0.35,0.1 0.3,0 0.3,0.5 0.35,0.15 0.3,0.15 0.35,-0.15 0.3,0.25 0.3,0 0.35,0.05 0.3,-0.2 0.35,0.5 0.3,0.1 0.35,0.2 0.3,0.1 0.3,0.05 0.35,-0.25 0.3,0 0.35,-0.3 0.3,0.1 0.3,-0.05 0.35,-0.05 0.3,-0.2 0.35,0.1 0.3,-0.05 0.35,0.1 0.3,0 0.3,-0.1 0.35,0 0.3,0.45 0.35,0.75 0.3,0.3 0.3,0.8 0.35,0.7 0.3,0.9 0.35,0.8 0.3,0.6 0.3,0.5 0.35,0 0.3,-0.1 0.35,0 0.3,-0.05 0.35,-0.25 0.3,-0.6 0.3,-0.9 0.35,-0.3 0.3,-0.7 0.35,-0.4 0.3,-0.35 0.3,-0.65 0.35,-0.3 0.3,0 0.35,-0.55 0.3,0.4 0.35,-0.3 0.3,-0.4 0.3,0.4 0.35,-0.5 0.3,0.35 0.35,0.65 0.3,-0.6 0.3,0.05 0.35,0.45 0.3,0.9 0.35,-0.95 0.3,0.7"
         style="fill:none;stroke:#659500;stroke-width:1.24;stroke-linecap:butt;stroke-linejoin:miter;stroke-miterlimit:10;stroke-opacity:1;stroke-dasharray:1.24,1.24;stroke-dashoffset:0"
         id="path7436"
         inkscape:connector-curvature="0" /><path
         d="m 226.1,66 0.35,-0.35 0.3,1.25 0.3,-0.9 0.35,0.35 0.3,-0.45 0.35,0.6 0.3,0.4 0.3,0.35 0.35,0.55 0.3,-0.1 0.35,1.05 0.3,-0.2 0.35,0.55 0.3,0.2 0.3,0.3 0.35,-0.05 0.3,0.25 0.35,0.2 0.3,-0.75 0.3,-0.8 0.35,0.75 0.3,-0.35 0.35,-0.25 0.3,-0.05 0.3,-0.15 0.35,0.3 0.3,-0.65 0.35,-0.3 0.3,-0.3 0.35,0.6 0.3,-0.4 0.3,-0.1 0.35,0.5 0.3,-0.45 0.35,-0.15 0.3,0.25 0.3,0.5 0.35,0.1 0.3,0.45 0.35,-0.2 0.3,0.55 0.35,0.4 0.3,-0.05 0.3,0.45 0.35,-0.05 0.3,-0.35 0.35,0 0.3,-0.3 0.3,-0.3 0.35,-0.35 0.3,0.2 0.35,-0.65 0.3,0 0.35,-0.8 0.3,0.25 0.3,-0.8 0.35,-0.05 0.3,-0.7 0.35,-0.3 0.3,0.1 0.3,-0.3 0.35,-0.55 0.3,-0.15 0.35,-0.7 0.3,-0.35 0.35,-0.05 0.3,-0.3 0.3,-0.35 0.35,-0.3 0.3,0.05 0.35,0.15 0.3,-0.1 0.3,-0.35 0.35,-0.05 0.3,0.2 0.35,0.15 0.3,-0.05 0.3,0.3 0.35,0.65 0.3,0.7 0.35,0.85 0.3,0.55 0.35,0.35 0.3,1.25 0.3,-0.1 0.35,0 0.3,0.4 0.35,-0.25 0.3,-0.2 0.3,-0.15 0.35,-0.7 0.3,-0.45 0.35,-0.9 0.3,-0.75 0.35,0.25 0.3,-0.3 0.3,-0.65 0.35,-0.75 0.3,0.7 0.35,-0.85 0.3,0.05 0.3,-0.4 0.35,0.2 0.3,-0.05"
         style="fill:none;stroke:#659500;stroke-width:1.24;stroke-linecap:butt;stroke-linejoin:miter;stroke-miterlimit:10;stroke-opacity:1;stroke-dasharray:1.24,1.24;stroke-dashoffset:0"
         id="path7438"
         inkscape:connector-curvature="0" /><path
         d="m 259.45,62.5 0.35,0.3 0.3,0.3 0.35,-1.15 0.3,0.35 0.3,-0.25 0.35,0.7 0.3,-0.7 0.35,0.55 0.3,0.15 0.3,-0.3 0.35,0.05 0.3,0.6 0.35,0.8 0.3,-0.25 0.3,1.1 0.35,0.8 0.3,-0.6 0.35,0.9 0.3,-0.45 0.35,-0.7 0.3,0.7 0.3,-0.35 0.35,0.05 0.3,-0.55 0.35,0.65 0.3,-0.5 0.3,-0.25 0.35,-0.35 0.3,-0.2 0.35,-0.25 0.3,0.8 0.35,-1.4 0.3,-0.3 0.3,-0.75 0.35,0.15 0.3,0 0.35,-0.3 0.3,-0.75 0.3,-0.3 0.35,-0.45 0.3,0.6 0.35,0.1 0.3,-0.3 0.35,0.15 0.3,0.1 0.3,0.2 0.35,-0.55 0.3,-0.2 0.35,1.05 0.3,-0.65 0.3,-0.6 0.35,0.5 0.3,0.75 0.35,-0.6 0.3,2.25 0.35,-1.9 0.3,1.3 0.3,1.6 0.35,0.25 0.3,0.45 0.35,0.85 0.3,-0.4 0.3,1.05 0.35,0.6 0.3,0.5 0.35,0 0.3,-0.8 0.3,0.35 0.35,0.3 0.3,-0.4 0.35,-0.9 0.3,-1.25 0.35,-0.6 0.3,0.4 0.3,-0.9 0.35,-1.15 0.3,0 0.35,-1.55 0.3,0.15 0.3,-0.25 0.35,-0.95 0.3,-0.4 0.35,-0.45 0.3,-0.25 0.35,-0.3 0.3,-0.7 0.3,0.95 0.35,-1.35 0.3,1 0.35,-0.25 0.3,0.65 0.3,0.15 0.35,0.85 0.3,0.7 0.35,2.1 0.3,0.7 0.35,2.25 0.3,-0.4 0.3,1.5 0.35,0.1 0.3,1.75 0.35,-0.05 0.3,1.35 0.3,-0.05"
         style="fill:none;stroke:#659500;stroke-width:1.24;stroke-linecap:butt;stroke-linejoin:miter;stroke-miterlimit:10;stroke-opacity:1;stroke-dasharray:1.24,1.24;stroke-dashoffset:0"
         id="path7440"
         inkscape:connector-curvature="0" /><path
         d="m 292.8,69.75 0.35,0.9 0.3,-0.3 0.35,1.55 0.3,-1.7 0.35,-0.4 0.3,-0.8 0.3,1.7 0.35,-2.25 0.3,-0.75 0.35,-0.15 0.3,-1.2 0.3,-1 0.35,-1.1 0.3,0.05 0.35,-1.3 0.3,1.4 0.3,-0.9 0.35,-0.05 0.3,-0.7 0.35,0.45 0.3,-1.4 0.35,0.55 0.3,-0.6 0.3,0.85 0.35,-0.75 0.3,0.85 0.35,-1.25 0.3,0.8 0.3,-0.7 0.35,0.3 0.3,-0.45 0.35,0.25 0.3,-0.75 0.35,0.45 0.3,-0.35 0.3,0.8 0.35,-0.95 0.3,-0.65 0.35,0.4 0.3,0.9 0.3,-0.05 0.35,-0.6 0.3,0.4 0.35,-0.35 0.3,-1.7 0.35,0.65 0.3,0.5 0.3,-1.1 0.35,-1.4 0.3,1.5 0.35,-2.75 0.3,1.25 0.3,-1.3 0.35,-0.6 0.3,-0.7 0.35,0.25 0.3,-0.5 0.35,1.2 0.3,-1 0.3,-0.4 0.35,0.3 0.3,-0.5 0.35,0.7 0.3,-0.1 0.3,-0.7 0.35,0.45 0.3,0.9 0.35,0.5 0.3,0.65 0.3,-0.4 0.35,1.25 0.3,0 0.35,0.15 0.3,1.6 0.35,-0.55 0.3,-0.1 0.3,1.8 0.35,-1.25 0.3,0.4 0.35,0.6 0.3,-1.2 0.3,-0.45 0.35,-0.75 0.3,1.2 0.35,-2.15 0.3,0.05 0.35,0.2 0.3,-1.05 0.3,-0.3 0.35,-0.95 0.3,-0.3 0.35,-0.4 0.3,-1.5 0.3,1.2 0.35,-0.25 0.3,-0.4 0.35,0.4 0.3,-1.35 0.35,1.6 0.3,-0.95 0.3,0.45 0.35,-0.15 0.3,-0.4 0.35,1.15"
         style="fill:none;stroke:#659500;stroke-width:1.24;stroke-linecap:butt;stroke-linejoin:miter;stroke-miterlimit:10;stroke-opacity:1;stroke-dasharray:1.24,1.24;stroke-dashoffset:0"
         id="path7442"
         inkscape:connector-curvature="0" /><path
         d="m 326.2,54.2 0.3,-1.25 0.3,1.1 0.35,-1.9 0.3,0.4 0.35,-0.4 0.3,0.5 0.3,-1.7 0.35,0.8 0.3,0.4 0.35,-1.9 0.3,1.35 0.35,-0.75 0.3,-0.4 0.3,0.6 0.35,0.3 0.3,0.25 0.35,0.2 0.3,0.9 0.3,0.25 0.35,0.9 0.3,0.35 0.35,0.35 0.3,0.85 0.35,0 0.3,0.2 0.3,0.2 0.35,-0.4 0.3,-0.2 0.35,-0.25 0.3,0.7 0.3,0 0.35,-0.25 0.3,0.25 0.35,0.25 0.3,-0.7 0.35,-0.05 0.3,0 0.3,-0.15 0.35,-0.15 0.3,0.35 0.35,-0.1 0.3,-0.6 0.3,0.1 0.35,-0.8 0.3,0.55"
         style="fill:none;stroke:#659500;stroke-width:1.24;stroke-linecap:butt;stroke-linejoin:miter;stroke-miterlimit:10;stroke-opacity:1;stroke-dasharray:1.24,1.24;stroke-dashoffset:0"
         id="path7444"
         inkscape:connector-curvature="0" /></g><g
       id="g8731"
       style="stroke:#398997;stroke-opacity:1;stroke-width:1.24;stroke-miterlimit:4;stroke-dasharray:4.96,2.48,1.24,2.48;stroke-dashoffset:0"><path
         d="m 300.75,177.35 29.55,0 m -237,-48.3 0.35,-3.15 0.3,1.15 0.35,1.05 0.3,1.1 0.3,0.8 0.35,1.15 0.3,0.7 0.35,0.95 0.3,0.9 0.3,0.75 0.35,0.55 0.3,0.65 0.35,0.45 0.3,0.6 0.35,0.55 0.3,0.5 0.3,0.45 0.35,0.45 0.3,0.55 0.35,0.5 0.3,0.6 0.3,0.5 0.35,0.5 0.3,0.65 0.35,0.4 0.3,0.5 0.35,0.3 0.3,0.6 0.3,0.2 0.35,0.25 0.3,0.05 0.35,0.7 0.3,0.1 0.3,0.6 0.35,1.35 0.3,0.8 0.35,0.35 0.3,0.4 0.3,-0.25 0.35,0.05 0.3,-0.65 0.35,-0.45 0.3,-0.85 0.35,-0.9 0.3,-1 0.3,-1.6 0.35,-1.7 0.3,-1.1 0.35,-1.95 0.3,-1.55 0.3,-1.4 0.35,-1.1 0.3,-1.1 0.35,-1.15 0.3,-0.85 0.35,-1.35 0.3,-0.9 0.3,-1 0.35,-1.05 0.3,-0.9 0.35,-0.75 0.3,-1 0.3,-0.95 0.35,-0.4 0.3,-0.85 0.35,-1.05 0.3,-0.9 0.35,-1 0.3,-1 0.3,-0.7 0.35,-1.05 0.3,-0.75 0.35,-0.95 0.3,-0.75 0.3,-0.7 0.35,-0.65 0.3,-0.8 0.35,-0.5 0.3,-0.8 0.35,-0.5 0.3,-0.6 0.3,-0.65 0.35,-0.3 0.3,-0.8 0.35,-0.65 0.3,-0.8 0.3,-0.75 0.35,-1 0.3,-1.15 0.35,-1 0.3,-1.3 0.3,-1.1 0.35,-1.3 0.3,-1.1 0.35,-0.7 0.3,-0.8 0.35,-0.45 0.3,-0.55 0.3,-0.55 0.35,-0.65 0.3,-0.7 0.35,-0.3"
         style="fill:none;stroke:#398997;stroke-width:1.24;stroke-linecap:butt;stroke-linejoin:miter;stroke-miterlimit:4;stroke-opacity:1;stroke-dasharray:4.96,2.48,1.24,2.48;stroke-dashoffset:0"
         id="path7446"
         inkscape:connector-curvature="0" /><path
         d="m 126.05,92.55 0.3,-0.2 0.3,-0.25 0.35,0 0.3,-0.3 0.35,0.05 0.3,0 0.35,-0.25 0.3,-0.1 0.3,0 0.35,-0.2 0.3,-0.15 0.35,-0.05 0.3,-0.35 0.3,-0.3 0.35,-0.4 0.3,-0.25 0.35,-0.35 0.3,-0.4 0.35,-0.6 0.3,-0.3 0.3,-0.4 0.35,-0.45 0.3,-0.35 0.35,-0.2 0.3,-0.3 0.3,-0.55 0.35,-0.05 0.3,-0.5 0.35,-0.1 0.3,-1 0.3,-0.45 0.35,-1.1 0.3,-1.75 0.35,-1.5 0.3,-1.05 0.35,-1.2 0.3,-0.8 0.3,-1.05 0.35,-0.7 0.3,-0.75 0.35,-0.85 0.3,-0.65 0.3,-0.75 0.35,-0.3 0.3,-0.15 0.35,-0.4 0.3,0.1 0.35,0.15 0.3,0.05 0.3,0.4 0.35,0.3 0.3,0.6 0.35,0.45 0.3,0.35 0.3,0.1 0.35,0.45 0.3,0.2 0.35,0.25 0.3,0.15 0.35,-0.05 0.3,0.3 0.3,-0.1 0.35,0 0.3,0.3 0.35,-0.05 0.3,0 0.3,-0.1 0.35,-0.3 0.3,-0.25 0.35,-0.3 0.3,-0.45 0.35,-0.3 0.3,-0.45 0.3,-0.3 0.35,-0.15 0.3,-0.4 0.35,-0.35 0.3,-0.4 0.3,-0.5 0.35,-0.3 0.3,-0.55 0.35,-0.5 0.3,-0.55 0.3,-0.35 0.35,-0.55 0.3,-0.4 0.35,-0.45 0.3,-0.6 0.35,-0.25 0.3,-0.35 0.3,-0.55 0.35,-0.4 0.3,-0.55 0.35,-0.75 0.3,-0.75 0.3,-0.6 0.35,-0.95 0.3,-0.65 0.35,-0.5 0.3,-0.8 0.35,-0.5 0.3,-0.3 0.3,-0.2 0.35,-0.15"
         style="fill:none;stroke:#398997;stroke-width:1.24;stroke-linecap:butt;stroke-linejoin:miter;stroke-miterlimit:4;stroke-opacity:1;stroke-dasharray:4.96,2.48,1.24,2.48;stroke-dashoffset:0"
         id="path7448"
         inkscape:connector-curvature="0" /><path
         d="m 159.4,58 0.3,-0.15 0.35,-0.05 0.3,-0.05 0.3,0 0.35,-0.15 0.3,0 0.35,-0.05 0.3,-0.2 0.35,-0.1 0.3,0 0.3,0.15 0.35,0.05 0.3,0.1 0.35,0 0.3,0.25 0.3,0.4 0.35,0.05 0.3,0.2 0.35,0.3 0.3,0.4 0.35,0.25 0.3,0.65 0.3,0.35 0.35,0.6 0.3,0.4 0.35,0.45 0.3,0.45 0.3,0.25 0.35,0.5 0.3,0.15 0.35,0.65 0.3,0.35 0.3,0.45 0.35,0.25 0.3,0.3 0.35,0.15 0.3,-0.05 0.35,-0.2 0.3,-0.25 0.3,-0.4 0.35,-0.55 0.3,-0.45 0.35,-0.75 0.3,-0.45 0.3,-0.7 0.35,-0.35 0.3,-0.35 0.35,-0.25 0.3,0.15 0.35,-0.55 0.3,-0.35 0.3,0 0.35,-0.4 0.3,-0.05 0.35,-0.05 0.3,-0.35 0.3,0.25 0.35,-0.1 0.3,0.4 0.35,0.05 0.3,0.1 0.35,0.2 0.3,-0.05 0.3,-0.15 0.35,0.2 0.3,-0.35 0.35,-0.05 0.3,-0.25 0.3,-0.35 0.35,-0.15 0.3,-0.2 0.35,-0.05 0.3,-0.4 0.35,0.05 0.3,0.2 0.3,-0.25 0.65,0 0.35,0.3 0.3,0.25 0.3,-0.2 0.35,0.9 0.3,0.15 0.35,0.05 0.3,0.4 0.3,0.25 0.35,0.1 0.3,-0.3 0.35,0.15 0.3,0.4 0.35,-0.1 0.3,0.05 0.3,0.05 0.35,0.05 0.3,-0.2 0.35,0.05 0.3,0.15 0.3,-0.15 0.35,-0.1 0.3,-0.05 0.35,-0.4 0.3,0 0.35,-0.4 0.3,-0.2"
         style="fill:none;stroke:#398997;stroke-width:1.24;stroke-linecap:butt;stroke-linejoin:miter;stroke-miterlimit:4;stroke-opacity:1;stroke-dasharray:4.96,2.48,1.24,2.48;stroke-dashoffset:0"
         id="path7450"
         inkscape:connector-curvature="0" /><path
         d="m 192.75,59.3 0.3,-0.15 0.35,-0.25 0.3,-0.15 0.35,-0.2 0.3,0.05 0.3,-0.15 0.35,-0.2 0.3,0.05 0.35,-0.05 0.3,-0.15 0.35,0.15 0.3,-0.15 0.3,0 0.35,0.1 0.3,-0.2 0.35,0.2 0.3,-0.2 0.3,-0.25 0.35,-0.05 0.3,0.05 0.35,0 0.3,-0.15 0.3,0.2 0.35,0.55 0.3,-0.55 0.35,0.3 0.3,-0.15 0.35,-0.15 0.3,-0.2 0.3,-0.1 0.35,0.45 0.3,0.3 0.35,0.35 0.3,-0.35 0.3,0.5 0.35,0.2 0.3,0.35 0.35,0.4 0.3,0.3 0.35,0.1 0.3,0.05 0.3,0.6 0.35,0.25 0.3,0.1 0.35,-0.1 0.3,0.25 0.3,0 0.35,0.1 0.3,-0.2 0.35,0.5 0.3,0.2 0.35,0.2 0.3,0.05 0.3,0.1 0.35,-0.3 0.3,-0.05 0.35,-0.3 0.3,0.1 0.3,-0.1 0.35,-0.05 0.3,-0.3 0.35,0.2 0.3,-0.15 0.35,0.2 0.3,0 0.3,-0.15 0.35,0.1 0.3,0.45 0.35,0.8 0.3,0.4 0.3,0.85 0.35,0.8 0.3,1.05 0.35,0.7 0.3,0.6 0.3,0.5 0.35,0 0.3,-0.1 0.35,0 0.3,-0.05 0.35,-0.25 0.3,-0.6 0.3,-1 0.35,-0.2 0.3,-0.85 0.35,-0.5 0.3,-0.25 0.3,-0.65 0.35,-0.25 0.3,-0.1 0.35,-0.45 0.3,0.5 0.35,-0.35 0.3,-0.45 0.3,0.35 0.35,-0.5 0.3,0.4 0.35,0.55 0.3,-0.65 0.3,-0.05 0.35,0.45 0.3,0.8 0.35,-1 0.3,0.7"
         style="fill:none;stroke:#398997;stroke-width:1.24;stroke-linecap:butt;stroke-linejoin:miter;stroke-miterlimit:4;stroke-opacity:1;stroke-dasharray:4.96,2.48,1.24,2.48;stroke-dashoffset:0"
         id="path7452"
         inkscape:connector-curvature="0" /><path
         d="m 226.1,63.05 0.35,-0.55 0.3,1.35 0.3,-1.05 0.35,0.35 0.3,-0.65 0.35,0.6 0.3,0.35 0.3,0.45 0.35,0.45 0.3,-0.1 0.35,1.05 0.3,-0.3 0.35,0.65 0.3,0.2 0.3,0.3 0.35,0 0.3,0.5 0.35,0.25 0.3,-0.65 0.3,-0.7 0.35,0.85 0.3,-0.3 0.35,-0.2 0.3,0.15 0.3,-0.15 0.35,0.35 0.3,-0.6 0.35,-0.2 0.3,-0.25 0.35,0.65 0.3,-0.4 0.3,0 0.35,0.55 0.3,-0.3 0.35,-0.2 0.3,0.25 0.3,0.65 0.35,0.1 0.3,0.4 0.35,-0.1 0.3,0.6 0.35,0.35 0.3,-0.05 0.3,0.4 0.35,-0.05 0.3,-0.3 0.35,0 0.3,-0.4 0.3,-0.2 0.35,-0.4 0.3,0.15 0.35,-0.55 0.3,0.05 0.35,-0.75 0.3,0.15 0.3,-0.75 0.35,-0.05 0.3,-0.65 0.35,-0.25 0.3,0.1 0.3,-0.3 0.35,-0.5 0.3,-0.2 0.35,-0.6 0.3,-0.4 0.35,0 0.3,-0.3 0.3,-0.25 0.35,-0.45 0.3,0.2 0.35,0.15 0.3,-0.1 0.3,-0.4 0.35,-0.05 0.3,0.2 0.35,0.15 0.3,-0.05 0.3,0.3 0.35,0.7 0.3,0.7 0.35,0.9 0.3,0.6 0.35,0.35 0.3,1.3 0.3,-0.1 0.35,0.1 0.3,0.4 0.35,-0.25 0.3,-0.15 0.3,-0.15 0.35,-0.65 0.3,-0.45 0.35,-0.9 0.3,-0.7 0.35,0.25 0.3,-0.3 0.3,-0.6 0.35,-0.75 0.3,0.75 0.35,-0.8 0.3,0.05 0.3,-0.4 0.35,0.2 0.3,-0.05"
         style="fill:none;stroke:#398997;stroke-width:1.24;stroke-linecap:butt;stroke-linejoin:miter;stroke-miterlimit:4;stroke-opacity:1;stroke-dasharray:4.96,2.48,1.24,2.48;stroke-dashoffset:0"
         id="path7454"
         inkscape:connector-curvature="0" /><path
         d="m 259.45,61.65 0.35,0.25 0.3,0.3 0.35,-1.1 0.3,0.25 0.3,-0.2 0.35,0.7 0.3,-0.75 0.35,0.6 0.3,0.2 0.3,-0.25 0.35,0.05 0.3,0.65 0.35,0.8 0.3,-0.15 0.3,1.15 0.35,0.75 0.3,-0.6 0.35,0.9 0.3,-0.4 0.35,-0.7 0.3,0.65 0.3,-0.35 0.35,0.05 0.3,-0.55 0.35,0.55 0.3,-0.5 0.3,-0.25 0.35,-0.4 0.3,-0.2 0.35,-0.25 0.3,0.75 0.35,-1.4 0.3,-0.35 0.3,-0.75 0.35,0.15 0.3,0 0.35,-0.3 0.3,-0.75 0.3,-0.3 0.35,-0.45 0.3,0.65 0.35,0.05 0.3,-0.3 0.35,0.15 0.3,0.15 0.3,0.25 0.35,-0.6 0.3,-0.15 0.35,1 0.3,-0.55 0.3,-0.6 0.35,0.5 0.3,0.85 0.35,-0.6 0.3,2.3 0.35,-1.8 0.3,1.35 0.3,1.55 0.35,0.35 0.3,0.45 0.35,0.85 0.3,-0.35 0.3,1.05 0.35,0.55 0.3,0.5 0.35,-0.05 0.3,-0.75 0.3,0.35 0.35,0.25 0.3,-0.45 0.35,-0.9 0.3,-1.3 0.35,-0.6 0.3,0.3 0.3,-1 0.35,-1.15 0.3,0 0.35,-1.55 0.3,0.1 0.3,-0.2 0.35,-0.95 0.3,-0.4 0.35,-0.45 0.3,-0.3 0.35,-0.25 0.3,-0.7 0.3,1 0.35,-1.35 0.3,0.95 0.35,-0.25 0.3,0.65 0.3,0.15 0.35,0.85 0.3,0.7 0.35,2.05 0.3,0.8 0.35,2.2 0.3,-0.4 0.3,1.5 0.35,0.1 0.3,1.75 0.35,-0.1 0.3,1.3 0.3,0"
         style="fill:none;stroke:#398997;stroke-width:1.24;stroke-linecap:butt;stroke-linejoin:miter;stroke-miterlimit:4;stroke-opacity:1;stroke-dasharray:4.96,2.48,1.24,2.48;stroke-dashoffset:0"
         id="path7456"
         inkscape:connector-curvature="0" /><path
         d="m 292.8,68.95 0.35,0.9 0.3,-0.3 0.35,1.55 0.3,-1.7 0.35,-0.5 0.3,-0.7 0.3,1.6 0.35,-2.25 0.3,-0.7 0.35,-0.15 0.3,-1.15 0.3,-1 0.35,-1.15 0.3,0.15 0.35,-1.3 0.3,1.4 0.3,-0.85 0.35,-0.1 0.3,-0.6 0.35,0.4 0.3,-1.35 0.35,0.55 0.3,-0.55 0.3,0.85 0.35,-0.65 0.3,0.75 0.35,-1.25 0.3,0.8 0.3,-0.75 0.35,0.3 0.3,-0.4 0.35,0.2 0.3,-0.75 0.35,0.45 0.3,-0.4 0.3,0.75 0.35,-0.95 0.3,-0.6 0.35,0.35 0.3,0.9 0.3,0 0.35,-0.7 0.3,0.4 0.35,-0.3 0.3,-1.7 0.35,0.65 0.3,0.5 0.3,-1.15 0.35,-1.35 0.3,1.5 0.35,-2.75 0.3,1.25 0.3,-1.35 0.35,-0.5 0.3,-0.75 0.35,0.25 0.3,-0.45 0.35,1.2 0.3,-0.95 0.3,-0.45 0.35,0.4 0.3,-0.5 0.35,0.7 0.3,-0.05 0.3,-0.65 0.35,0.45 0.3,0.9 0.35,0.55 0.3,0.65 0.3,-0.35 0.35,1.25 0.3,0.05 0.35,0.15 0.3,1.6 0.35,-0.5 0.3,-0.1 0.3,1.75 0.35,-1.2 0.3,0.35 0.35,0.65 0.3,-1.3 0.3,-0.4 0.35,-0.8 0.3,1.2 0.35,-2.1 0.3,0 0.35,0.15 0.3,-1.15 0.3,-0.25 0.35,-1.05 0.3,-0.25 0.35,-0.45 0.3,-1.45 0.3,1.2 0.35,-0.25 0.3,-0.35 0.35,0.4 0.3,-1.3 0.35,1.5 0.3,-0.85 0.3,0.4 0.35,-0.1 0.3,-0.4 0.35,1.1"
         style="fill:none;stroke:#398997;stroke-width:1.24;stroke-linecap:butt;stroke-linejoin:miter;stroke-miterlimit:4;stroke-opacity:1;stroke-dasharray:4.96,2.48,1.24,2.48;stroke-dashoffset:0"
         id="path7458"
         inkscape:connector-curvature="0" /><path
         d="m 326.2,53.7 0.3,-1.2 0.3,1.05 0.35,-1.9 0.3,0.3 0.35,-0.35 0.3,0.4 0.3,-1.6 0.35,0.6 0.3,0.35 0.35,-1.95 0.3,1.3 0.35,-0.8 0.3,-0.35 0.3,0.5 0.35,0.3 0.3,0.15 0.35,0.25 0.3,1 0.3,0.25 0.35,0.75 0.3,0.4 0.35,0.45 0.3,0.8 0.35,-0.05 0.3,0.35 0.3,0.15 0.35,-0.3 0.3,-0.15 0.35,-0.35 0.3,0.7 0.3,0 0.35,-0.35 0.3,0.25 0.35,0.2 0.3,-0.65 0.35,-0.1 0.3,-0.05 0.3,-0.2 0.35,-0.1 0.3,0.35 0.35,-0.25 0.3,-0.6 0.3,0.1 0.35,-0.75 0.3,0.45"
         style="fill:none;stroke:#398997;stroke-width:1.24;stroke-linecap:butt;stroke-linejoin:miter;stroke-miterlimit:4;stroke-opacity:1;stroke-dasharray:4.96,2.48,1.24,2.48;stroke-dashoffset:0"
         id="path7460"
         inkscape:connector-curvature="0" /></g><g
       id="g8741"
       style="stroke:#00a25c;stroke-opacity:1;stroke-width:1.24000000000000021;stroke-miterlimit:4;stroke-dasharray:7.44000000000000039, 1.24000000000000021;stroke-dashoffset:0"><path
         d="m 300.75,166.35 29.55,0 m -237,-110.6 0.35,-0.3 0.3,-0.2 0.35,-0.05 0.3,-0.2 0.3,-0.2 0.35,-0.25 0.3,-0.15 0.35,-0.25 0.3,-0.3 0.3,-0.05 0.35,-0.5 0.3,0 0.35,-0.5 0.3,0.2 0.35,-0.25 0.3,-0.1 0.3,0.3 0.35,-0.25 0.3,0.25 0.35,0 0.3,-0.1 0.3,-0.3 0.35,0.2 0.3,0.25 0.35,0.1 0.3,0.2 0.35,0 0.3,0.4 0.3,0.4 0.35,0.4 0.3,0.25 0.35,0.5 0.3,0 0.3,0.4 0.35,-0.2 0.3,0.1 0.35,0 0.3,0.2 0.3,0.05 0.35,0.05 0.3,-0.45 0.35,-0.3 0.3,-0.45 0.35,-0.65 0.3,-0.3 0.3,-0.7 0.35,-0.55 0.3,-0.35 0.35,-0.65 0.3,-0.4 0.3,-0.2 0.35,0.05 0.3,-0.2 0.35,0 0.3,0.45 0.35,-0.2 0.3,-0.15 0.3,0.1 0.35,-0.2 0.3,0 0.35,-0.2 0.3,-0.2 0.3,0.35 0.35,-0.4 0.3,-0.1 0.35,-0.3 0.3,-0.05 0.35,-0.15 0.3,-0.2 0.3,-0.2 0.35,-0.35 0.3,-0.5 0.35,-0.15 0.3,-0.5 0.3,0.1 0.35,-0.05 0.3,0.1 0.35,0.2 0.3,0.05 0.35,0.35 0.3,0.1 0.3,0.25 0.35,0.4 0.3,0.3 0.35,0.4 0.3,0.3 0.3,0.25 0.35,0.2 0.3,0.15 0.35,0.2 0.3,0.5 0.3,0.25 0.35,0.1 0.3,0.5 0.35,0.55 0.3,0.55 0.35,0.85 0.3,0.95 0.3,0.9 0.35,1 0.3,1.1 0.35,1.1"
         style="fill:none;stroke:#00a25c;stroke-width:1.24000000000000021;stroke-linecap:butt;stroke-linejoin:miter;stroke-miterlimit:4;stroke-opacity:1;stroke-dasharray:7.44000000000000039, 1.24000000000000021;stroke-dashoffset:0"
         id="path7462"
         inkscape:connector-curvature="0" /><path
         d="m 126.05,59.4 0.3,1.15 0.3,1.05 0.35,0.95 0.3,0.8 0.35,0.65 0.3,0.65 0.35,0.4 0.3,0.45 0.3,0.2 0.35,0.1 0.3,0.05 0.35,-0.1 0.3,-0.2 0.3,-0.25 0.35,-0.35 0.3,-0.45 0.35,-0.35 0.3,-0.35 0.35,-0.5 0.3,-0.4 0.3,-0.5 0.35,-0.4 0.3,-0.4 0.35,-0.45 0.3,-0.55 0.3,-0.45 0.35,-0.55 0.3,-0.6 0.35,-0.7 0.3,-0.9 0.3,-1.1 0.35,-1.25 0.3,-1.55 0.35,-1.45 0.3,-1.5 0.35,-1.1 0.3,-1.3 0.3,-0.9 0.35,-0.65 0.3,-0.35 0.35,-0.4 0.3,-0.05 0.3,-0.4 0.35,0 0.3,0.1 0.35,0.45 0.3,0.95 0.35,1.35 0.3,1.35 0.3,1.65 0.35,1.6 0.3,1.55 0.35,1.15 0.3,1.1 0.3,0.8 0.35,0.85 0.3,0.55 0.35,0.6 0.3,0.5 0.35,0.25 0.3,0.5 0.3,0.4 0.35,0.3 0.3,0.4 0.35,0.2 0.3,0.2 0.3,0.35 0.35,0.05 0.3,0.2 0.35,0.2 0.3,0.1 0.35,0.05 0.3,0 0.3,0.05 0.35,0.05 0.3,0 0.35,-0.25 0.3,-0.1 0.3,-0.25 0.35,-0.4 0.3,-0.45 0.35,-0.45 0.3,-0.5 0.3,-0.25 0.35,-0.75 0.3,-0.2 0.35,-0.4 0.3,-0.4 0.35,-0.6 0.3,-0.35 0.3,-0.75 0.35,-0.85 0.3,-0.8 0.35,-1.1 0.3,-1.4 0.3,-0.95 0.35,-1.65 0.3,-1.3 0.35,-1.25 0.3,-0.95 0.35,-0.9 0.3,-0.65 0.3,-0.45 0.35,-0.1"
         style="fill:none;stroke:#00a25c;stroke-width:1.24000000000000021;stroke-linecap:butt;stroke-linejoin:miter;stroke-miterlimit:4;stroke-opacity:1;stroke-dasharray:7.44000000000000039, 1.24000000000000021;stroke-dashoffset:0"
         id="path7464"
         inkscape:connector-curvature="0" /><path
         d="m 159.4,44.8 0.3,-0.1 0.35,0.2 0.3,0.1 0.3,0 0.35,-0.1 0.3,0.15 0.35,-0.25 0.3,-0.1 0.35,0.2 0.3,-0.15 0.3,-0.2 0.35,0 0.3,0.1 0.35,-0.05 0.3,0.2 0.3,0.1 0.35,0 0.3,0.3 0.35,0.35 0.3,0.4 0.35,0.3 0.3,0.4 0.3,0.6 0.35,0.55 0.3,0.65 0.35,0.55 0.3,0.7 0.3,0.55 0.35,0.75 0.3,0.65 0.35,0.85 0.3,0.85 0.3,0.6 0.35,0.6 0.3,0.5 0.35,0.3 0.3,0 0.35,-0.25 0.3,-0.4 0.3,-0.7 0.35,-0.7 0.3,-0.9 0.35,-1 0.3,-0.8 0.3,-0.7 0.35,-0.5 0.3,-0.3 0.35,-0.25 0.3,0.2 0.35,-0.3 0.3,-0.25 0.3,0.15 0.35,-0.3 0.3,0.05 0.35,0 0.3,-0.05 0.3,0.15 0.35,0.1 0.3,0.3 0.35,0.2 0.3,0.1 0.35,0.2 0.3,0.05 0.3,-0.2 0.35,0 0.3,-0.3 0.35,-0.3 0.3,-0.35 0.3,-0.4 0.35,-0.45 0.3,-0.45 0.35,-0.3 0.3,-0.65 0.35,-0.1 0.3,-0.3 0.3,-0.35 0.35,-0.25 0.3,-0.1 0.35,0.25 0.3,0.4 0.3,-0.4 0.35,0.85 0.3,0.05 0.35,-0.1 0.3,0.65 0.3,0.55 0.35,0.15 0.3,0.05 0.35,0.4 0.3,0.4 0.35,0.1 0.3,0.25 0.3,0.05 1.3,0 0.3,-0.35 0.35,-0.1 0.3,-0.4 0.35,-0.35 0.3,-0.15 0.35,-0.55 0.3,-0.25"
         style="fill:none;stroke:#00a25c;stroke-width:1.24000000000000021;stroke-linecap:butt;stroke-linejoin:miter;stroke-miterlimit:4;stroke-opacity:1;stroke-dasharray:7.44000000000000039, 1.24000000000000021;stroke-dashoffset:0"
         id="path7466"
         inkscape:connector-curvature="0" /><path
         d="m 192.75,46.45 0.3,-0.45 0.35,-0.5 0.3,-0.5 0.35,-0.3 0.3,-0.25 0.3,-0.35 0.35,-0.25 0.3,-0.2 0.35,0.05 0.3,-0.45 0.35,0.05 0.3,-0.3 0.3,0.15 0.35,-0.25 0.3,-0.2 0.35,0.55 0.3,-0.4 0.3,0.2 0.35,0.4 0.3,-0.2 0.35,0.45 0.3,0.4 0.3,0.2 0.35,0.35 0.3,-0.45 0.35,0.05 0.3,0 0.35,-0.6 0.3,-0.5 0.3,-0.6 0.35,-0.35 0.3,-0.85 0.35,-0.05 0.3,-0.1 0.3,-0.1 0.35,0.1 0.3,0.2 0.35,0.65 0.3,-0.05 0.35,-0.05 0.3,0.05 0.3,0 0.35,-0.1 0.3,0.05 0.35,-0.3 0.3,0.1 0.3,0.2 0.35,0.05 0.3,0.35 0.35,0.6 0.3,0.2 0.35,0.35 0.3,0.3 0.3,0.1 0.35,-0.05 0.3,-0.1 0.35,0 0.3,-0.1 0.3,0 0.35,-0.15 0.3,0.2 0.35,0.1 0.3,0.2 0.35,0.4 0.3,0.5 0.3,0.45 0.35,0.85 0.3,0.95 0.35,1.3 0.3,1.2 0.3,1.6 0.35,1.25 0.3,1.25 0.35,1.2 0.3,0.95 0.3,0.65 0.35,0.35 0.3,0.1 0.35,-0.15 0.3,-0.4 0.35,-0.6 0.3,-1.05 0.3,-1.05 0.35,-1.15 0.3,-1.3 0.35,-1.05 0.3,-0.85 0.3,-1.2 0.35,-0.55 0.3,-0.5 0.35,-0.35 0.3,0.25 0.35,-0.55 0.3,-0.1 0.3,-0.05 0.35,-0.7 0.3,-0.05 0.35,0 0.3,-0.45 0.3,-0.1 0.35,0.15 0.3,0.2 0.35,-0.5 0.3,0.7"
         style="fill:none;stroke:#00a25c;stroke-width:1.24000000000000021;stroke-linecap:butt;stroke-linejoin:miter;stroke-miterlimit:4;stroke-opacity:1;stroke-dasharray:7.44000000000000039, 1.24000000000000021;stroke-dashoffset:0"
         id="path7468"
         inkscape:connector-curvature="0" /><path
         d="m 226.1,45.6 0.35,-0.35 0.3,0.45 0.3,-0.05 0.35,1.1 0.3,-0.3 0.35,0.9 0.3,0.75 0.3,0.7 0.35,0.8 0.3,0.35 0.35,1 0.3,0.3 0.35,0.6 0.3,0.3 0.3,0.05 0.35,0.45 0.3,0.3 0.35,-0.05 0.3,-0.3 0.3,-0.6 0.35,0.3 0.3,-0.35 0.35,-0.05 0.3,0.2 0.3,0.05 0.35,0 0.3,0.2 0.35,0.45 0.3,0.25 0.35,0.3 0.3,0.25 0.3,0.95 0.35,0.3 0.3,0.75 0.35,0.75 0.3,0.15 0.3,0.95 0.35,0.2 0.3,0.6 0.35,0.35 0.3,0.5 0.35,-0.1 0.3,0.2 0.3,-0.15 0.35,0.15 0.3,-0.2 0.35,-0.15 0.3,-0.4 0.3,-0.05 0.35,-0.5 0.3,-0.65 0.35,-0.45 0.3,-0.35 0.35,-0.55 0.3,-0.35 0.3,-0.8 0.35,-0.65 0.3,-0.45 0.35,-0.5 0.3,-0.55 0.3,-0.65 0.35,-0.15 0.3,-1.1 0.35,-0.7 0.3,-0.65 0.35,-0.9 0.3,-0.6 0.3,-0.45 0.35,0.15 0.3,-0.65 0.35,0.2 0.3,-0.15 0.3,-0.3 0.35,-0.15 0.3,0.4 0.35,0.2 0.3,0.7 0.3,1.1 0.35,0.85 0.3,1.4 0.35,1.15 0.3,0.9 0.35,1.05 0.3,1.55 0.3,0.25 0.35,0.45 0.3,-0.1 0.35,0 0.3,-0.15 0.3,-0.75 0.35,-0.4 0.3,-0.85 0.35,-0.9 0.3,-0.35 0.35,-0.45 0.3,-0.55 0.3,-0.25 0.35,-0.05 0.3,0.1 0.35,-0.4 0.3,0.05 0.3,0.3 0.35,-0.5 0.3,-0.2"
         style="fill:none;stroke:#00a25c;stroke-width:1.24000000000000021;stroke-linecap:butt;stroke-linejoin:miter;stroke-miterlimit:4;stroke-opacity:1;stroke-dasharray:7.44000000000000039, 1.24000000000000021;stroke-dashoffset:0"
         id="path7470"
         inkscape:connector-curvature="0" /><path
         d="m 259.45,51.05 0.35,-0.25 0.3,-0.15 0.35,-0.3 0.3,-0.05 0.3,-0.15 0.35,0.3 0.3,0.05 0.35,0.1 0.3,0.65 0.3,0.2 0.35,0.6 0.3,0.65 0.35,0.9 0.3,0.5 0.3,0.55 0.35,0.65 0.3,-0.1 0.35,0.3 0.3,-0.2 0.35,-0.05 0.3,-0.15 0.3,-0.2 0.35,-0.3 0.3,0 0.35,-0.65 0.3,-0.15 0.3,-0.4 0.35,-0.15 0.3,0 0.35,-0.85 0.3,-0.6 0.35,-0.6 0.3,-0.6 0.3,-0.45 0.35,-0.75 0.3,-0.6 0.35,-0.15 0.3,0 0.3,-0.1 0.35,0.15 0.3,-0.25 0.35,0.05 0.3,0.05 0.35,-0.1 0.3,0.05 0.3,-0.1 0.35,-0.1 0.3,-0.3 0.35,-0.25 0.3,-0.3 0.3,-0.25 0.35,0.15 0.3,0.05 0.35,0 0.3,0.95 0.35,0.25 0.3,0.75 0.3,1.6 0.35,0.3 0.3,0.8 0.35,0.8 0.3,0.4 0.3,0.9 0.35,0.35 0.3,0.5 0.35,0.05 0.3,0.25 0.3,-0.05 0.35,-0.25 0.3,-0.7 0.35,-0.35 0.3,-1 0.35,-0.7 0.3,-0.45 0.3,-0.95 0.35,-0.95 0.3,-0.3 0.35,-0.9 0.3,-0.45 0.3,-1.1 0.35,-0.1 0.3,-0.45 0.35,-1 0.3,-0.5 0.35,-1.05 0.3,-0.55 0.3,-0.1 0.35,-0.55 0.3,-0.1 0.35,0.8 0.3,1.15 0.3,0.5 0.35,1.3 0.3,1.4 0.35,2.05 0.3,0.95 0.35,2 0.3,1 0.3,1.1 0.35,0.65 0.3,1.4 0.35,0.5 0.3,1 0.3,0.9"
         style="fill:none;stroke:#00a25c;stroke-width:1.24000000000000021;stroke-linecap:butt;stroke-linejoin:miter;stroke-miterlimit:4;stroke-opacity:1;stroke-dasharray:7.44000000000000039, 1.24000000000000021;stroke-dashoffset:0"
         id="path7472"
         inkscape:connector-curvature="0" /><path
         d="m 292.8,59.45 0.35,0.9 0.3,0.3 0.35,0.65 0.3,-0.9 0.35,-0.75 0.3,-1.1 0.3,0.2 0.35,-1.65 0.3,-0.7 0.35,-0.45 0.3,-1.15 0.3,-0.55 0.35,-0.9 0.3,-0.4 0.35,-0.6 0.3,0.4 0.3,-0.25 0.35,0.2 0.3,-0.25 0.35,0.3 0.3,-0.7 0.35,0.6 0.3,-0.5 0.3,0.4 0.35,-0.2 0.3,0.25 0.35,-0.55 0.3,-0.15 0.3,-0.5 0.35,0.1 0.3,-0.3 0.35,-0.35 0.3,-0.6 0.35,0.15 0.3,-0.4 0.3,-0.05 0.35,-0.45 0.3,-0.45 0.95,0 0.35,-0.4 0.3,-0.05 0.35,-0.1 0.3,-1 0.35,-0.1 0.3,0.05 0.3,-1.1 0.35,-0.4 0.3,0.45 0.35,-1.5 0.3,0.4 0.3,-0.95 0.35,-0.4 0.3,-0.05 0.35,0.1 0.3,0.2 0.35,0.7 0.3,0.2 0.3,0.35 0.35,0.35 0.3,0.4 0.35,0.25 0.3,0.1 0.3,0.05 0.35,0.15 0.3,-0.1 0.35,0.4 0.3,0.6 0.3,0.3 0.35,0.95 0.3,0.6 0.35,0.3 0.3,1.8 0.35,-0.15 0.3,0.2 0.3,0.9 0.35,-0.3 0.3,0 0.35,0.3 0.3,-0.7 0.3,-0.45 0.35,-0.35 0.3,0.1 0.35,-1.55 0.3,-0.55 0.35,-0.65 0.3,-1.35 0.3,-0.3 0.35,-1.05 0.3,-0.85 0.35,-0.45 0.3,-0.4 0.3,0 0.35,-0.3 0.3,0.1 0.35,-0.2 0.3,0.15 0.35,-0.1 0.3,0.5 0.3,-0.45 0.35,0.7 0.3,0.1 0.35,0.5"
         style="fill:none;stroke:#00a25c;stroke-width:1.24000000000000021;stroke-linecap:butt;stroke-linejoin:miter;stroke-miterlimit:4;stroke-opacity:1;stroke-dasharray:7.44000000000000039, 1.24000000000000021;stroke-dashoffset:0"
         id="path7474"
         inkscape:connector-curvature="0" /><path
         d="m 326.2,45 0.3,0.05 0.3,-0.15 0.35,1.55 0.3,-1.4 0.35,0.2 0.3,-0.9 0.3,0.75 0.35,-1.45 0.3,-0.1 0.35,-0.25 0.3,-0.3 0.35,0.15 0.3,0.75 0.3,0.2 0.35,0.35 0.3,0.85 0.35,0.95 0.3,1.45 0.3,0.4 0.35,-0.05 0.3,1 0.35,0.35 0.3,0.65 0.35,0.15 0.3,-0.05 0.3,0.5 0.35,0.15 0.3,-0.05 0.35,-1 0.3,0.85 0.3,-0.95 0.35,0.4 0.3,0.05 0.35,-0.5 0.3,0.35 0.35,0.55 0.3,-0.7 0.3,0.2 0.35,0.05 0.3,-0.15 0.35,-0.85 0.3,-0.1 0.3,0.55 0.35,-0.65 0.3,0.4"
         style="fill:none;stroke:#00a25c;stroke-width:1.24000000000000021;stroke-linecap:butt;stroke-linejoin:miter;stroke-miterlimit:4;stroke-opacity:1;stroke-dasharray:7.44000000000000039, 1.24000000000000021;stroke-dashoffset:0"
         id="path7476"
         inkscape:connector-curvature="0" /></g><path
       inkscape:connector-curvature="0"
       id="path7478"
       style="fill:none;stroke:#000000;stroke-width:0.5;stroke-linecap:butt;stroke-linejoin:miter;stroke-miterlimit:10;stroke-opacity:1;stroke-dasharray:none"
       d="m 86.9,35.2 256.6,0 0,183.8 -256.6,0 0,-183.8 z" /><rect
       style="fill:none;stroke:#ffffff;stroke-width:1.54999994999999990;stroke-linecap:square;stroke-miterlimit:4;stroke-opacity:1;stroke-dasharray:6.20000000000000018, 3.10000000000000009, 1.55000000000000004, 3.10000000000000009;stroke-dashoffset:0"
       id="rect7480"
       width="449.80933"
       height="315"
       x="0"
       y="-1.6620538e-07"
       transform="matrix(0.8,0,0,-0.8,0,252)" /></g></svg>